<?xml version="1.0" encoding="utf-8"?>
<!-- Generator: Adobe Illustrator 27.5.0, SVG Export Plug-In . SVG Version: 6.00 Build 0)  -->
<svg version="1.1" xmlns="http://www.w3.org/2000/svg" xmlns:xlink="http://www.w3.org/1999/xlink" x="0px" y="0px"
	 viewBox="0 0 500 500" style="enable-background:new 0 0 500 500;" xml:space="preserve">
<g id="BACKGROUND">
	<rect style="fill-rule:evenodd;clip-rule:evenodd;fill:#FCF4E6;" width="500" height="500"/>
</g>
<g id="OBJECTS">
	<g>
		<path style="fill-rule:evenodd;clip-rule:evenodd;fill:#68738D;" d="M248.969,73.041c89.6,0,162.907,73.308,162.907,162.906
			v189.718H86.062V235.947C86.062,146.349,159.371,73.041,248.969,73.041z"/>
		<path style="fill-rule:evenodd;clip-rule:evenodd;fill:#8B9AB8;" d="M294.528,111.424c32.099,0,61.873,10.746,86.108,28.902
			c19.622,26.901,31.239,59.968,31.239,95.621v189.718h-264.22V262.536C147.656,179.424,213.748,111.424,294.528,111.424z"/>
	</g>
	<g>
		<g>
			<rect x="53.786" y="238.439" style="fill-rule:evenodd;clip-rule:evenodd;fill:#D4BDB0;" width="33.308" height="17.785"/>
			<path style="fill-rule:evenodd;clip-rule:evenodd;fill:#FCF4E6;" d="M53.786,236.918h33.308c0.839,0,1.521,0.681,1.521,1.521
				v17.786c0,0.84-0.681,1.52-1.521,1.52H53.786c-0.84,0-1.521-0.681-1.521-1.52v-17.786
				C52.265,237.599,52.946,236.918,53.786,236.918L53.786,236.918z M85.573,239.96H55.306v14.744h30.267V239.96z"/>
			<rect x="53.786" y="256.224" style="fill-rule:evenodd;clip-rule:evenodd;fill:#D4BDB0;" width="33.308" height="17.786"/>
			<path style="fill-rule:evenodd;clip-rule:evenodd;fill:#FCF4E6;" d="M53.786,254.704h33.308c0.839,0,1.521,0.68,1.521,1.521
				v17.786c0,0.84-0.681,1.521-1.521,1.521H53.786c-0.84,0-1.521-0.681-1.521-1.521v-17.786
				C52.265,255.384,52.946,254.704,53.786,254.704L53.786,254.704z M85.573,257.745H55.306v14.745h30.267V257.745z"/>
			<rect x="53.786" y="274.01" style="fill-rule:evenodd;clip-rule:evenodd;fill:#D4BDB0;" width="33.308" height="17.786"/>
			<path style="fill-rule:evenodd;clip-rule:evenodd;fill:#FCF4E6;" d="M53.786,272.49h33.308c0.839,0,1.521,0.68,1.521,1.521
				v17.786c0,0.839-0.681,1.521-1.521,1.521H53.786c-0.84,0-1.521-0.682-1.521-1.521v-17.786
				C52.265,273.17,52.946,272.49,53.786,272.49L53.786,272.49z M85.573,275.531H55.306v14.744h30.267V275.531z"/>
			<rect x="53.786" y="291.796" style="fill-rule:evenodd;clip-rule:evenodd;fill:#D4BDB0;" width="33.308" height="17.786"/>
			<path style="fill-rule:evenodd;clip-rule:evenodd;fill:#FCF4E6;" d="M53.786,290.275h33.308c0.839,0,1.521,0.681,1.521,1.522
				v17.785c0,0.84-0.681,1.521-1.521,1.521H53.786c-0.84,0-1.521-0.682-1.521-1.521v-17.785
				C52.265,290.956,52.946,290.275,53.786,290.275L53.786,290.275z M85.573,293.317H55.306v14.744h30.267V293.317z"/>
			<rect x="53.786" y="309.582" style="fill-rule:evenodd;clip-rule:evenodd;fill:#D4BDB0;" width="33.308" height="17.786"/>
			<path style="fill-rule:evenodd;clip-rule:evenodd;fill:#FCF4E6;" d="M53.786,308.061h33.308c0.839,0,1.521,0.681,1.521,1.521
				v17.786c0,0.84-0.681,1.521-1.521,1.521H53.786c-0.84,0-1.521-0.682-1.521-1.521v-17.786
				C52.265,308.742,52.946,308.061,53.786,308.061L53.786,308.061z M85.573,311.103H55.306v14.744h30.267V311.103z"/>
			<rect x="53.786" y="327.368" style="fill-rule:evenodd;clip-rule:evenodd;fill:#D4BDB0;" width="33.308" height="17.786"/>
			<path style="fill-rule:evenodd;clip-rule:evenodd;fill:#FCF4E6;" d="M53.786,325.848h33.308c0.839,0,1.521,0.681,1.521,1.521
				v17.786c0,0.84-0.681,1.521-1.521,1.521H53.786c-0.84,0-1.521-0.681-1.521-1.521v-17.786
				C52.265,326.528,52.946,325.848,53.786,325.848L53.786,325.848z M85.573,328.89H55.306v14.744h30.267V328.89z"/>
			<rect x="53.786" y="345.154" style="fill-rule:evenodd;clip-rule:evenodd;fill:#D4BDB0;" width="33.308" height="17.785"/>
			<path style="fill-rule:evenodd;clip-rule:evenodd;fill:#FCF4E6;" d="M53.786,343.634h33.308c0.839,0,1.521,0.681,1.521,1.521
				v17.786c0,0.84-0.681,1.521-1.521,1.521H53.786c-0.84,0-1.521-0.681-1.521-1.521v-17.786
				C52.265,344.315,52.946,343.634,53.786,343.634L53.786,343.634z M85.573,346.675H55.306v14.745h30.267V346.675z"/>
			<rect x="53.786" y="362.94" style="fill-rule:evenodd;clip-rule:evenodd;fill:#D4BDB0;" width="33.308" height="17.786"/>
			<path style="fill-rule:evenodd;clip-rule:evenodd;fill:#FCF4E6;" d="M53.786,361.42h33.308c0.839,0,1.521,0.681,1.521,1.521
				v17.786c0,0.84-0.681,1.521-1.521,1.521H53.786c-0.84,0-1.521-0.681-1.521-1.521V362.94
				C52.265,362.101,52.946,361.42,53.786,361.42L53.786,361.42z M85.573,364.461H55.306v14.745h30.267V364.461z"/>
			<rect x="53.786" y="380.726" style="fill-rule:evenodd;clip-rule:evenodd;fill:#D4BDB0;" width="33.308" height="17.786"/>
			<path style="fill-rule:evenodd;clip-rule:evenodd;fill:#FCF4E6;" d="M53.786,379.206h33.308c0.839,0,1.521,0.68,1.521,1.521
				v17.786c0,0.84-0.681,1.521-1.521,1.521H53.786c-0.84,0-1.521-0.681-1.521-1.521v-17.786
				C52.265,379.886,52.946,379.206,53.786,379.206L53.786,379.206z M85.573,382.247H55.306v14.745h30.267V382.247z"/>
			<rect x="53.786" y="398.512" style="fill-rule:evenodd;clip-rule:evenodd;fill:#D4BDB0;" width="33.308" height="17.786"/>
			<path style="fill-rule:evenodd;clip-rule:evenodd;fill:#FCF4E6;" d="M53.786,396.992h33.308c0.839,0,1.521,0.68,1.521,1.521
				v17.786c0,0.839-0.681,1.521-1.521,1.521H53.786c-0.84,0-1.521-0.682-1.521-1.521v-17.786
				C52.265,397.672,52.946,396.992,53.786,396.992L53.786,396.992z M85.573,400.033H55.306v14.744h30.267V400.033z"/>
			<rect x="53.786" y="416.298" style="fill-rule:evenodd;clip-rule:evenodd;fill:#D4BDB0;" width="33.308" height="17.786"/>
			<path style="fill-rule:evenodd;clip-rule:evenodd;fill:#FCF4E6;" d="M53.786,414.777h33.308c0.839,0,1.521,0.681,1.521,1.521
				v17.785c0,0.84-0.681,1.521-1.521,1.521H53.786c-0.84,0-1.521-0.682-1.521-1.521v-17.785
				C52.265,415.458,52.946,414.777,53.786,414.777L53.786,414.777z M85.573,417.819H55.306v14.744h30.267V417.819z"/>
			
				<rect x="62.142" y="211.857" transform="matrix(0.0632 -0.998 0.998 0.0632 -161.5092 284.9585)" style="fill-rule:evenodd;clip-rule:evenodd;fill:#D4BDB0;" width="17.786" height="33.308"/>
			<path style="fill-rule:evenodd;clip-rule:evenodd;fill:#FCF4E6;" d="M55.071,217.068l33.241,2.105
				c0.837,0.052,1.473,0.773,1.419,1.609l-1.124,17.751c-0.052,0.836-0.773,1.472-1.609,1.419l-33.242-2.104
				c-0.836-0.053-1.472-0.773-1.419-1.61l1.124-17.75C53.514,217.651,54.234,217.016,55.071,217.068L55.071,217.068z
				 M86.606,222.107l-30.211-1.914l-0.932,14.722l30.211,1.913L86.606,222.107z"/>
			
				<rect x="64.94" y="191.807" transform="matrix(0.2124 -0.9772 0.9772 0.2124 -145.5544 236.3278)" style="fill-rule:evenodd;clip-rule:evenodd;fill:#D4BDB0;" width="17.786" height="33.308"/>
			<path style="fill-rule:evenodd;clip-rule:evenodd;fill:#FCF4E6;" d="M59.769,194.748l32.548,7.075
				c0.819,0.177,1.341,0.986,1.164,1.806l-3.777,17.38c-0.178,0.82-0.986,1.342-1.806,1.165l-32.547-7.076
				c-0.82-0.177-1.341-0.985-1.165-1.806l3.778-17.38C58.14,195.093,58.949,194.571,59.769,194.748L59.769,194.748z M90.188,204.47
				l-29.578-6.429l-3.133,14.41l29.579,6.43L90.188,204.47z"/>
			
				<rect x="70.104" y="172.962" transform="matrix(0.3155 -0.9489 0.9489 0.3155 -125.857 204.7609)" style="fill-rule:evenodd;clip-rule:evenodd;fill:#D4BDB0;" width="17.786" height="33.308"/>
			<path style="fill-rule:evenodd;clip-rule:evenodd;fill:#FCF4E6;" d="M66.475,174.485l31.606,10.508
				c0.794,0.263,1.225,1.119,0.962,1.912l-5.611,16.878c-0.262,0.794-1.119,1.225-1.913,0.962l-31.606-10.507
				c-0.794-0.263-1.225-1.119-0.962-1.913l5.61-16.878C64.824,174.654,65.681,174.223,66.475,174.485L66.475,174.485z
				 M95.692,187.39l-28.733-9.553l-4.655,14.005l28.733,9.552L95.692,187.39z"/>
			
				<rect x="77.106" y="154.887" transform="matrix(0.4061 -0.9139 0.9139 0.4061 -105.6843 180.4766)" style="fill-rule:evenodd;clip-rule:evenodd;fill:#D4BDB0;" width="17.786" height="33.308"/>
			<path style="fill-rule:evenodd;clip-rule:evenodd;fill:#FCF4E6;" d="M75.002,155.268l30.438,13.525
				c0.764,0.338,1.11,1.231,0.772,1.996l-7.222,16.253c-0.337,0.765-1.231,1.11-1.996,0.772L66.557,174.29
				c-0.764-0.338-1.11-1.232-0.772-1.996l7.222-16.254C73.344,155.275,74.238,154.93,75.002,155.268L75.002,155.268z
				 M102.831,170.945l-27.672-12.296l-5.994,13.488l27.672,12.296L102.831,170.945z"/>
			
				<rect x="85.947" y="137.502" transform="matrix(0.4993 -0.8664 0.8664 0.4993 -86.0794 159.3551)" style="fill-rule:evenodd;clip-rule:evenodd;fill:#D4BDB0;" width="17.786" height="33.308"/>
			<path style="fill-rule:evenodd;clip-rule:evenodd;fill:#FCF4E6;" d="M85.605,136.823l28.858,16.631
				c0.725,0.416,0.975,1.342,0.559,2.067l-8.881,15.41c-0.417,0.725-1.342,0.975-2.067,0.558l-28.858-16.631
				c-0.725-0.416-0.975-1.342-0.559-2.066l8.881-15.411C83.954,136.656,84.88,136.406,85.605,136.823L85.605,136.823z
				 M111.641,155.322l-26.234-15.118l-7.369,12.786l26.235,15.118L111.641,155.322z"/>
			
				<rect x="96.702" y="121.066" transform="matrix(0.594 -0.8045 0.8045 0.594 -67.9197 140.8584)" style="fill-rule:evenodd;clip-rule:evenodd;fill:#D4BDB0;" width="17.786" height="33.308"/>
			<path style="fill-rule:evenodd;clip-rule:evenodd;fill:#FCF4E6;" d="M98.383,119.456l26.794,19.785
				c0.673,0.499,0.814,1.448,0.315,2.121l-10.565,14.308c-0.499,0.672-1.449,0.813-2.121,0.314l-26.794-19.785
				c-0.673-0.499-0.814-1.448-0.315-2.121l10.565-14.308C96.761,119.098,97.71,118.957,98.383,119.456L98.383,119.456z
				 M122.154,140.778l-24.355-17.984l-8.764,11.868l24.355,17.984L122.154,140.778z"/>
			
				<rect x="109.165" y="105.978" transform="matrix(0.6778 -0.7352 0.7352 0.6778 -52.1267 126.313)" style="fill-rule:evenodd;clip-rule:evenodd;fill:#D4BDB0;" width="17.786" height="33.308"/>
			<path style="fill-rule:evenodd;clip-rule:evenodd;fill:#FCF4E6;" d="M112.869,103.688l24.489,22.576
				c0.617,0.567,0.657,1.528,0.09,2.145l-12.056,13.077c-0.567,0.616-1.528,0.657-2.145,0.089l-24.489-22.576
				c-0.616-0.567-0.657-1.527-0.089-2.145l12.055-13.076C111.291,103.161,112.252,103.121,112.869,103.688L112.869,103.688z
				 M134.185,127.469l-22.257-20.519l-9.998,10.845l22.258,20.52L134.185,127.469z"/>
			
				<rect x="123.24" y="92.321" transform="matrix(0.7553 -0.6553 0.6553 0.7553 -39.0869 113.2548)" style="fill-rule:evenodd;clip-rule:evenodd;fill:#D4BDB0;" width="17.786" height="33.307"/>
			<path style="fill-rule:evenodd;clip-rule:evenodd;fill:#FCF4E6;" d="M129.083,89.575l21.828,25.158
				c0.547,0.634,0.479,1.591-0.154,2.139l-13.434,11.656c-0.633,0.548-1.591,0.479-2.139-0.154l-21.828-25.158
				c-0.548-0.633-0.478-1.591,0.154-2.139l13.435-11.656C127.578,88.873,128.535,88.942,129.083,89.575L129.083,89.575z
				 M147.625,115.574l-19.84-22.868l-11.144,9.669l19.84,22.868L147.625,115.574z"/>
			
				<rect x="138.648" y="80.324" transform="matrix(0.8205 -0.5716 0.5716 0.8205 -28.9535 101.7454)" style="fill-rule:evenodd;clip-rule:evenodd;fill:#D4BDB0;" width="17.786" height="33.308"/>
			<path style="fill-rule:evenodd;clip-rule:evenodd;fill:#FCF4E6;" d="M146.566,77.362l19.04,27.329
				c0.479,0.689,0.308,1.637-0.381,2.115l-14.593,10.167c-0.689,0.479-1.635,0.309-2.115-0.38l-19.039-27.33
				c-0.479-0.688-0.309-1.636,0.38-2.114l14.594-10.167C145.14,76.503,146.086,76.674,146.566,77.362L146.566,77.362z
				 M162.243,105.181L144.94,80.345l-12.101,8.431l17.302,24.836L162.243,105.181z"/>
			
				<rect x="155.265" y="70.027" transform="matrix(0.8771 -0.4803 0.4803 0.8771 -21.4582 89.5056)" style="fill-rule:evenodd;clip-rule:evenodd;fill:#D4BDB0;" width="17.786" height="33.307"/>
			<path style="fill-rule:evenodd;clip-rule:evenodd;fill:#FCF4E6;" d="M165.289,67.077l15.999,29.214
				c0.4,0.734,0.129,1.655-0.606,2.056l-15.6,8.543c-0.735,0.4-1.655,0.129-2.055-0.605l-16-29.214
				c-0.399-0.734-0.128-1.655,0.607-2.056l15.6-8.543C163.968,66.071,164.889,66.343,165.289,67.077L165.289,67.077z
				 M177.901,96.414l-14.544-26.556l-12.941,7.089l14.544,26.555L177.901,96.414z"/>
			
				<rect x="172.936" y="61.575" transform="matrix(0.9245 -0.3813 0.3813 0.9245 -16.0917 75.237)" style="fill-rule:evenodd;clip-rule:evenodd;fill:#D4BDB0;" width="17.785" height="33.308"/>
			<path style="fill-rule:evenodd;clip-rule:evenodd;fill:#FCF4E6;" d="M185.102,58.866l12.7,30.791
				c0.318,0.774-0.051,1.66-0.826,1.978l-16.442,6.782c-0.774,0.317-1.66-0.052-1.978-0.826l-12.7-30.791
				c-0.317-0.774,0.052-1.66,0.826-1.978l16.442-6.781C183.898,57.723,184.784,58.092,185.102,58.866L185.102,58.866z
				 M194.421,89.411l-11.544-27.989l-13.641,5.625l11.544,27.989L194.421,89.411z"/>
			
				<rect x="191.471" y="55.122" transform="matrix(0.9614 -0.2753 0.2753 0.9614 -12.0175 57.9358)" style="fill-rule:evenodd;clip-rule:evenodd;fill:#D4BDB0;" width="17.786" height="33.307"/>
			<path style="fill-rule:evenodd;clip-rule:evenodd;fill:#FCF4E6;" d="M205.789,52.9l9.17,32.021
				c0.23,0.807-0.238,1.647-1.045,1.877l-17.099,4.897c-0.808,0.229-1.648-0.238-1.877-1.046l-9.17-32.021
				c-0.23-0.807,0.238-1.647,1.045-1.877l17.099-4.896C204.719,51.626,205.56,52.094,205.789,52.9L205.789,52.9z M211.619,84.295
				l-8.333-29.1l-14.177,4.061l8.333,29.099L211.619,84.295z"/>
			
				<rect x="210.435" y="50.726" transform="matrix(0.9845 -0.1757 0.1757 0.9845 -8.4254 39.573)" style="fill-rule:evenodd;clip-rule:evenodd;fill:#D4BDB0;" width="17.786" height="33.308"/>
			<path style="fill-rule:evenodd;clip-rule:evenodd;fill:#FCF4E6;" d="M226.654,49.162l5.85,32.789
				c0.145,0.827-0.409,1.614-1.235,1.759l-17.509,3.124c-0.827,0.145-1.615-0.409-1.758-1.236l-5.85-32.789
				c-0.144-0.826,0.408-1.614,1.235-1.759l17.509-3.124C225.723,47.782,226.511,48.335,226.654,49.162L226.654,49.162z
				 M229.245,80.983l-5.317-29.797l-14.517,2.59l5.317,29.798L229.245,80.983z"/>
			<polygon style="fill-rule:evenodd;clip-rule:evenodd;fill:#D4BDB0;" points="248.671,48.269 249.985,81.553 231.086,82.213 
				229.772,48.928 			"/>
			<path style="fill-rule:evenodd;clip-rule:evenodd;fill:#FCF4E6;" d="M250.186,48.209l1.314,33.284
				c0.033,0.837-0.619,1.542-1.455,1.574l-18.912,0.66c-0.833,0.026-1.53-0.625-1.562-1.455l-1.314-33.285
				c-0.033-0.836,0.619-1.542,1.455-1.574l18.912-0.659C249.456,46.728,250.154,47.378,250.186,48.209L250.186,48.209z
				 M248.411,80.092l-1.194-30.256l-15.869,0.554l1.194,30.256L248.411,80.092z"/>
			<rect x="412.907" y="238.439" style="fill-rule:evenodd;clip-rule:evenodd;fill:#D4BDB0;" width="33.308" height="17.785"/>
			<path style="fill-rule:evenodd;clip-rule:evenodd;fill:#FCF4E6;" d="M444.694,239.96h-30.267v14.744h30.267V239.96
				L444.694,239.96z M412.906,236.918h33.309c0.839,0,1.521,0.681,1.521,1.521v17.786c0,0.84-0.682,1.52-1.521,1.52h-33.309
				c-0.839,0-1.521-0.681-1.521-1.52v-17.786C411.386,237.599,412.067,236.918,412.906,236.918z"/>
			<rect x="412.907" y="256.224" style="fill-rule:evenodd;clip-rule:evenodd;fill:#D4BDB0;" width="33.308" height="17.786"/>
			<path style="fill-rule:evenodd;clip-rule:evenodd;fill:#FCF4E6;" d="M444.694,257.745h-30.267v14.745h30.267V257.745
				L444.694,257.745z M412.906,254.704h33.309c0.839,0,1.521,0.68,1.521,1.521v17.786c0,0.84-0.682,1.521-1.521,1.521h-33.309
				c-0.839,0-1.521-0.681-1.521-1.521v-17.786C411.386,255.384,412.067,254.704,412.906,254.704z"/>
			<rect x="412.907" y="274.01" style="fill-rule:evenodd;clip-rule:evenodd;fill:#D4BDB0;" width="33.308" height="17.786"/>
			<path style="fill-rule:evenodd;clip-rule:evenodd;fill:#FCF4E6;" d="M444.694,275.531h-30.267v14.744h30.267V275.531
				L444.694,275.531z M412.906,272.49h33.309c0.839,0,1.521,0.68,1.521,1.521v17.786c0,0.839-0.682,1.521-1.521,1.521h-33.309
				c-0.839,0-1.521-0.682-1.521-1.521v-17.786C411.386,273.17,412.067,272.49,412.906,272.49z"/>
			<rect x="412.907" y="291.796" style="fill-rule:evenodd;clip-rule:evenodd;fill:#D4BDB0;" width="33.308" height="17.786"/>
			<path style="fill-rule:evenodd;clip-rule:evenodd;fill:#FCF4E6;" d="M444.694,293.317h-30.267v14.744h30.267V293.317
				L444.694,293.317z M412.906,290.275h33.309c0.839,0,1.521,0.681,1.521,1.522v17.785c0,0.84-0.682,1.521-1.521,1.521h-33.309
				c-0.839,0-1.521-0.682-1.521-1.521v-17.785C411.386,290.956,412.067,290.275,412.906,290.275z"/>
			<rect x="412.907" y="309.582" style="fill-rule:evenodd;clip-rule:evenodd;fill:#D4BDB0;" width="33.308" height="17.786"/>
			<path style="fill-rule:evenodd;clip-rule:evenodd;fill:#FCF4E6;" d="M444.694,311.103h-30.267v14.744h30.267V311.103
				L444.694,311.103z M412.906,308.061h33.309c0.839,0,1.521,0.681,1.521,1.521v17.786c0,0.84-0.682,1.521-1.521,1.521h-33.309
				c-0.839,0-1.521-0.682-1.521-1.521v-17.786C411.386,308.742,412.067,308.061,412.906,308.061z"/>
			<rect x="412.907" y="327.368" style="fill-rule:evenodd;clip-rule:evenodd;fill:#D4BDB0;" width="33.308" height="17.786"/>
			<path style="fill-rule:evenodd;clip-rule:evenodd;fill:#FCF4E6;" d="M444.694,328.89h-30.267v14.744h30.267V328.89
				L444.694,328.89z M412.906,325.848h33.309c0.839,0,1.521,0.681,1.521,1.521v17.786c0,0.84-0.682,1.521-1.521,1.521h-33.309
				c-0.839,0-1.521-0.681-1.521-1.521v-17.786C411.386,326.528,412.067,325.848,412.906,325.848z"/>
			<rect x="412.907" y="345.154" style="fill-rule:evenodd;clip-rule:evenodd;fill:#D4BDB0;" width="33.308" height="17.785"/>
			<path style="fill-rule:evenodd;clip-rule:evenodd;fill:#FCF4E6;" d="M444.694,346.675h-30.267v14.745h30.267V346.675
				L444.694,346.675z M412.906,343.634h33.309c0.839,0,1.521,0.681,1.521,1.521v17.786c0,0.84-0.682,1.521-1.521,1.521h-33.309
				c-0.839,0-1.521-0.681-1.521-1.521v-17.786C411.386,344.315,412.067,343.634,412.906,343.634z"/>
			<rect x="412.907" y="362.94" style="fill-rule:evenodd;clip-rule:evenodd;fill:#D4BDB0;" width="33.308" height="17.786"/>
			<path style="fill-rule:evenodd;clip-rule:evenodd;fill:#FCF4E6;" d="M444.694,364.461h-30.267v14.745h30.267V364.461
				L444.694,364.461z M412.906,361.42h33.309c0.839,0,1.521,0.681,1.521,1.521v17.786c0,0.84-0.682,1.521-1.521,1.521h-33.309
				c-0.839,0-1.521-0.681-1.521-1.521V362.94C411.386,362.101,412.067,361.42,412.906,361.42z"/>
			<rect x="412.907" y="380.726" style="fill-rule:evenodd;clip-rule:evenodd;fill:#D4BDB0;" width="33.308" height="17.786"/>
			<path style="fill-rule:evenodd;clip-rule:evenodd;fill:#FCF4E6;" d="M444.694,382.247h-30.267v14.745h30.267V382.247
				L444.694,382.247z M412.906,379.206h33.309c0.839,0,1.521,0.68,1.521,1.521v17.786c0,0.84-0.682,1.521-1.521,1.521h-33.309
				c-0.839,0-1.521-0.681-1.521-1.521v-17.786C411.386,379.886,412.067,379.206,412.906,379.206z"/>
			<rect x="412.907" y="398.512" style="fill-rule:evenodd;clip-rule:evenodd;fill:#D4BDB0;" width="33.308" height="17.786"/>
			<path style="fill-rule:evenodd;clip-rule:evenodd;fill:#FCF4E6;" d="M444.694,400.033h-30.267v14.744h30.267V400.033
				L444.694,400.033z M412.906,396.992h33.309c0.839,0,1.521,0.68,1.521,1.521v17.786c0,0.839-0.682,1.521-1.521,1.521h-33.309
				c-0.839,0-1.521-0.682-1.521-1.521v-17.786C411.386,397.672,412.067,396.992,412.906,396.992z"/>
			<rect x="412.907" y="416.298" style="fill-rule:evenodd;clip-rule:evenodd;fill:#D4BDB0;" width="33.308" height="17.786"/>
			<path style="fill-rule:evenodd;clip-rule:evenodd;fill:#FCF4E6;" d="M444.694,417.819h-30.267v14.744h30.267V417.819
				L444.694,417.819z M412.906,414.777h33.309c0.839,0,1.521,0.681,1.521,1.521v17.785c0,0.84-0.682,1.521-1.521,1.521h-33.309
				c-0.839,0-1.521-0.682-1.521-1.521v-17.785C411.386,415.458,412.067,414.777,412.906,414.777z"/>
			
				<rect x="412.311" y="219.618" transform="matrix(0.998 -0.0632 0.0632 0.998 -13.587 27.5734)" style="fill-rule:evenodd;clip-rule:evenodd;fill:#D4BDB0;" width="33.308" height="17.786"/>
			<path style="fill-rule:evenodd;clip-rule:evenodd;fill:#FCF4E6;" d="M443.604,220.193l-30.211,1.914l0.933,14.721l30.211-1.913
				L443.604,220.193L443.604,220.193z M411.687,219.174l33.241-2.105c0.837-0.053,1.558,0.583,1.61,1.42l1.124,17.75
				c0.052,0.837-0.584,1.558-1.42,1.61l-33.241,2.104c-0.837,0.053-1.558-0.583-1.61-1.419l-1.123-17.751
				C410.215,219.947,410.852,219.226,411.687,219.174z"/>
			
				<rect x="409.513" y="199.568" transform="matrix(0.9772 -0.2124 0.2124 0.9772 -34.5559 95.2855)" style="fill-rule:evenodd;clip-rule:evenodd;fill:#D4BDB0;" width="33.308" height="17.786"/>
			<path style="fill-rule:evenodd;clip-rule:evenodd;fill:#FCF4E6;" d="M439.39,198.041l-29.578,6.429l3.133,14.411l29.578-6.43
				L439.39,198.041L439.39,198.041z M407.684,201.823l32.548-7.075c0.819-0.177,1.629,0.345,1.806,1.164l3.778,17.38
				c0.177,0.82-0.345,1.629-1.165,1.806l-32.547,7.076c-0.82,0.177-1.629-0.345-1.806-1.165l-3.778-17.38
				C406.343,202.81,406.864,202,407.684,201.823z"/>
			
				<rect x="404.349" y="180.723" transform="matrix(0.9489 -0.3155 0.3155 0.9489 -38.3199 142.4968)" style="fill-rule:evenodd;clip-rule:evenodd;fill:#D4BDB0;" width="33.308" height="17.786"/>
			<path style="fill-rule:evenodd;clip-rule:evenodd;fill:#FCF4E6;" d="M433.042,177.837l-28.733,9.553l4.655,14.004l28.732-9.552
				L433.042,177.837L433.042,177.837z M401.919,184.993l31.607-10.508c0.794-0.263,1.65,0.169,1.913,0.962l5.61,16.878
				c0.263,0.794-0.168,1.65-0.963,1.913l-31.606,10.507c-0.793,0.263-1.65-0.168-1.912-0.962l-5.611-16.878
				C400.693,186.112,401.124,185.256,401.919,184.993z"/>
			
				<rect x="397.348" y="162.649" transform="matrix(0.9139 -0.406 0.406 0.9139 -33.9885 182.8812)" style="fill-rule:evenodd;clip-rule:evenodd;fill:#D4BDB0;" width="33.308" height="17.785"/>
			<path style="fill-rule:evenodd;clip-rule:evenodd;fill:#FCF4E6;" d="M424.841,158.649l-27.672,12.296l5.993,13.488l27.672-12.296
				L424.841,158.649L424.841,158.649z M394.56,168.793l30.438-13.525c0.766-0.338,1.658,0.008,1.997,0.772l7.222,16.254
				c0.338,0.764-0.008,1.658-0.772,1.996l-30.438,13.525c-0.765,0.338-1.659-0.008-1.996-0.772l-7.222-16.253
				C393.449,170.024,393.796,169.131,394.56,168.793z"/>
			
				<rect x="388.507" y="145.263" transform="matrix(0.8664 -0.4993 0.4993 0.8664 -22.8515 222.894)" style="fill-rule:evenodd;clip-rule:evenodd;fill:#D4BDB0;" width="33.308" height="17.786"/>
			<path style="fill-rule:evenodd;clip-rule:evenodd;fill:#FCF4E6;" d="M414.594,140.204l-26.235,15.118l7.369,12.786l26.234-15.118
				L414.594,140.204L414.594,140.204z M385.536,153.454l28.859-16.631c0.725-0.417,1.65-0.167,2.066,0.558l8.881,15.411
				c0.417,0.725,0.167,1.65-0.559,2.066l-28.858,16.631c-0.725,0.417-1.65,0.167-2.067-0.558l-8.881-15.41
				C384.561,154.796,384.811,153.87,385.536,153.454z"/>
			
				<rect x="377.752" y="128.827" transform="matrix(0.8045 -0.594 0.594 0.8045 -4.6845 261.21)" style="fill-rule:evenodd;clip-rule:evenodd;fill:#D4BDB0;" width="33.308" height="17.786"/>
			<path style="fill-rule:evenodd;clip-rule:evenodd;fill:#FCF4E6;" d="M402.201,122.794l-24.355,17.984l8.764,11.868l24.355-17.984
				L402.201,122.794L402.201,122.794z M374.822,139.241l26.795-19.785c0.673-0.499,1.622-0.358,2.12,0.314l10.565,14.308
				c0.499,0.673,0.358,1.622-0.315,2.121l-26.794,19.785c-0.673,0.499-1.622,0.357-2.12-0.314l-10.565-14.308
				C374.01,140.689,374.149,139.74,374.822,139.241z"/>
			
				<rect x="365.288" y="113.739" transform="matrix(0.7352 -0.6778 0.6778 0.7352 18.0012 291.3495)" style="fill-rule:evenodd;clip-rule:evenodd;fill:#D4BDB0;" width="33.308" height="17.786"/>
			<path style="fill-rule:evenodd;clip-rule:evenodd;fill:#FCF4E6;" d="M388.071,106.95l-22.257,20.519l9.998,10.846l22.258-20.52
				L388.071,106.95L388.071,106.95z M362.643,126.265l24.489-22.576c0.616-0.567,1.577-0.527,2.145,0.09l12.055,13.076
				c0.568,0.617,0.527,1.577-0.089,2.145l-24.489,22.576c-0.616,0.568-1.577,0.527-2.145-0.089l-12.056-13.077
				C361.985,127.793,362.025,126.832,362.643,126.265z"/>
			
				<rect x="351.213" y="100.082" transform="matrix(0.6553 -0.7553 0.7553 0.6553 44.4746 315.418)" style="fill-rule:evenodd;clip-rule:evenodd;fill:#D4BDB0;" width="33.307" height="17.786"/>
			<path style="fill-rule:evenodd;clip-rule:evenodd;fill:#FCF4E6;" d="M372.215,92.706l-19.84,22.868l11.144,9.669l19.841-22.868
				L372.215,92.706L372.215,92.706z M349.089,114.733l21.828-25.158c0.548-0.633,1.506-0.702,2.139-0.154l13.434,11.656
				c0.633,0.548,0.702,1.506,0.154,2.139l-21.828,25.158c-0.548,0.633-1.506,0.702-2.139,0.154l-13.434-11.656
				C348.61,116.324,348.541,115.367,349.089,114.733z"/>
			
				<rect x="335.804" y="88.085" transform="matrix(0.5716 -0.8205 0.8205 0.5716 71.4084 330.7352)" style="fill-rule:evenodd;clip-rule:evenodd;fill:#D4BDB0;" width="33.308" height="17.786"/>
			<path style="fill-rule:evenodd;clip-rule:evenodd;fill:#FCF4E6;" d="M355.06,80.345l-17.303,24.836l12.101,8.431l17.303-24.836
				L355.06,80.345L355.06,80.345z M334.394,104.691l19.04-27.329c0.479-0.688,1.426-0.859,2.114-0.38l14.594,10.167
				c0.689,0.479,0.859,1.426,0.38,2.114l-19.039,27.33c-0.479,0.688-1.427,0.858-2.115,0.38l-14.593-10.167
				C334.086,106.328,333.916,105.381,334.394,104.691z"/>
			
				<rect x="319.188" y="77.787" transform="matrix(0.4804 -0.8771 0.8771 0.4804 98.4919 339.5999)" style="fill-rule:evenodd;clip-rule:evenodd;fill:#D4BDB0;" width="33.308" height="17.786"/>
			<path style="fill-rule:evenodd;clip-rule:evenodd;fill:#FCF4E6;" d="M336.643,69.858L322.1,96.414l12.941,7.088l14.544-26.555
				L336.643,69.858L336.643,69.858z M318.712,96.291l16-29.214c0.399-0.734,1.32-1.006,2.055-0.605l15.6,8.543
				c0.734,0.4,1.006,1.321,0.607,2.056l-16,29.214c-0.4,0.734-1.32,1.006-2.055,0.605l-15.6-8.543
				C318.583,97.946,318.311,97.025,318.712,96.291z"/>
			
				<rect x="301.517" y="69.336" transform="matrix(0.3813 -0.9245 0.9245 0.3813 124.5431 342.541)" style="fill-rule:evenodd;clip-rule:evenodd;fill:#D4BDB0;" width="33.308" height="17.785"/>
			<path style="fill-rule:evenodd;clip-rule:evenodd;fill:#FCF4E6;" d="M317.123,61.422l-11.544,27.989l13.641,5.625l11.544-27.989
				L317.123,61.422L317.123,61.422z M302.198,89.657l12.7-30.791c0.317-0.774,1.203-1.144,1.978-0.825l16.442,6.781
				c0.774,0.318,1.143,1.204,0.826,1.978l-12.7,30.791c-0.318,0.774-1.204,1.144-1.978,0.826l-16.441-6.782
				C302.249,91.317,301.88,90.432,302.198,89.657z"/>
			
				<rect x="282.983" y="62.882" transform="matrix(0.2753 -0.9614 0.9614 0.2753 148.1423 340.0719)" style="fill-rule:evenodd;clip-rule:evenodd;fill:#D4BDB0;" width="33.307" height="17.786"/>
			<path style="fill-rule:evenodd;clip-rule:evenodd;fill:#FCF4E6;" d="M296.714,55.195l-8.333,29.1l14.177,4.06l8.334-29.099
				L296.714,55.195L296.714,55.195z M285.04,84.921l9.171-32.021c0.229-0.807,1.07-1.274,1.878-1.045l17.098,4.896
				c0.808,0.229,1.275,1.07,1.046,1.877l-9.171,32.021c-0.229,0.808-1.07,1.275-1.878,1.046l-17.099-4.897
				C285.278,86.568,284.81,85.728,285.04,84.921z"/>
			
				<rect x="264.018" y="58.487" transform="matrix(0.1757 -0.9845 0.9845 0.1757 165.0392 331.8528)" style="fill-rule:evenodd;clip-rule:evenodd;fill:#D4BDB0;" width="33.308" height="17.786"/>
			<path style="fill-rule:evenodd;clip-rule:evenodd;fill:#FCF4E6;" d="M276.072,51.187l-5.316,29.797l14.517,2.591l5.317-29.798
				L276.072,51.187L276.072,51.187z M267.495,81.951l5.851-32.789c0.144-0.827,0.932-1.38,1.758-1.236l17.51,3.124
				c0.827,0.145,1.38,0.933,1.235,1.759l-5.85,32.789c-0.145,0.827-0.933,1.381-1.759,1.236l-17.509-3.124
				C267.904,83.565,267.351,82.778,267.495,81.951z"/>
			<polygon style="fill-rule:evenodd;clip-rule:evenodd;fill:#D4BDB0;" points="251.299,48.269 249.985,81.553 268.885,82.213 
				270.198,48.928 			"/>
			<path style="fill-rule:evenodd;clip-rule:evenodd;fill:#FCF4E6;" d="M252.754,49.836l-1.193,30.256l15.869,0.554l1.194-30.256
				L252.754,49.836L252.754,49.836z M248.471,81.493l1.314-33.284c0.033-0.831,0.73-1.481,1.562-1.455l18.911,0.659
				c0.837,0.032,1.488,0.738,1.456,1.574l-1.315,33.285c-0.032,0.83-0.729,1.481-1.563,1.455l-18.911-0.66
				C249.09,83.035,248.438,82.33,248.471,81.493z"/>
		</g>
		<polygon style="fill-rule:evenodd;clip-rule:evenodd;fill:#D4BDB0;" points="36.567,441.413 463.861,441.413 451.453,459.353 
			54.082,459.353 		"/>
	</g>
	<g>
		<path style="fill-rule:evenodd;clip-rule:evenodd;fill:#BE3545;" d="M190.966,284.194c28.027-18.748,74.576-18.748,102.601,0
			l-6.261,149.095h-89.197L190.966,284.194z"/>
		<path style="fill-rule:evenodd;clip-rule:evenodd;fill:#BE3545;" d="M145.816,370.352c4.472-33.746,21.955-75.184,42.349-87.608
			c3.85-2.346,19.294-7.857,24.031-6.717c5.394,1.298-0.039,9.737,1.773,14.998c7.55,21.936-30.129,32.201-33.762,86.573
			C178.403,395.282,146.625,381.141,145.816,370.352z"/>
		<path style="fill-rule:evenodd;clip-rule:evenodd;fill:#BE3545;" d="M293.567,284.194c1.473,0.794,35.426,26.21,49.373,56.632
			c3.002,6.548-0.495,6.958,0.788,14.525c0.803,8.469-24.547,10.218-28.118,4.503c0,0-15.251-20.474-35.252-36.135
			C264.935,308.298,277.704,279.567,293.567,284.194z"/>
		<path style="fill-rule:evenodd;clip-rule:evenodd;fill:#28303F;" d="M194.067,336.096c0.018,0.294-0.206,0.549-0.501,0.566
			c-0.295,0.02-0.55-0.205-0.568-0.5c-0.148-2.292-0.2-5.197-0.257-8.473c-0.19-10.807-0.453-25.681-4.617-36.488
			c-0.106-0.275,0.031-0.586,0.306-0.692c0.275-0.106,0.585,0.031,0.692,0.307c4.233,10.983,4.497,25.97,4.689,36.858
			C193.867,330.911,193.918,333.784,194.067,336.096z"/>
		<path style="fill-rule:evenodd;clip-rule:evenodd;fill:#28303F;" d="M293.03,292.383c0.09-0.282,0.391-0.439,0.674-0.351
			c0.281,0.089,0.439,0.391,0.349,0.673c-2.368,7.495-2.117,18.297-1.904,27.5c0.114,4.909,0.218,9.367-0.091,12.669
			c-0.026,0.293-0.287,0.51-0.58,0.483c-0.294-0.027-0.511-0.287-0.484-0.58c0.303-3.24,0.2-7.671,0.087-12.552
			C290.864,310.939,290.612,300.037,293.03,292.383z"/>
		<path style="fill-rule:evenodd;clip-rule:evenodd;fill:#E3A779;" d="M258.21,246.427l-0.368,25.028
			c-3.057,16.897-26.509,14.77-29.04-0.528l0.636-23.808L258.21,246.427z"/>
		<path style="fill-rule:evenodd;clip-rule:evenodd;fill:#28303F;" d="M229.304,293.69c0.269-0.079,0.549,0.074,0.628,0.342
			c0.079,0.269-0.074,0.55-0.343,0.628c-2.062,0.606-4.093,1.131-6.054,1.572c-2.001,0.449-3.921,0.81-5.715,1.072l-14.646,2.154
			c2.598,19.275,4.907,37.306,6.74,55.306c1.847,18.148,3.206,36.258,3.884,55.57c0.009,0.278-0.21,0.512-0.489,0.521
			c-0.279,0.009-0.512-0.21-0.52-0.489c-0.677-19.281-2.036-37.37-3.881-55.503c-1.843-18.116-4.176-36.286-6.798-55.737
			l-0.004-0.023c-0.041-0.276,0.151-0.533,0.428-0.574l15.14-2.227c1.785-0.262,3.679-0.616,5.64-1.057
			C225.248,294.811,227.257,294.291,229.304,293.69z"/>
		<path style="fill-rule:evenodd;clip-rule:evenodd;fill:#C17453;" d="M258.217,246.427l-0.337,18.37
			c-6.94,7.067-22.814,7.369-28.92-1.192l0.558-16.485L258.217,246.427z"/>
		<g>
			<path style="fill-rule:evenodd;clip-rule:evenodd;fill:#F6FAFD;" d="M228.869,260.983c-2.126,0.492-3.913,1.242-4.504,2.463
				c-1.313,2.709-3.659,7.481-3.718,8.342c-0.076,1.131,7.85,14.895,23.227,14.895c0-9.384-8.83-15.619-14.55-20.32
				C228.549,265.726,229.5,261.568,228.869,260.983z"/>
			<path style="fill-rule:evenodd;clip-rule:evenodd;fill:#F6FAFD;" d="M257.968,261.47c0.27,0.066,2.451,0.989,3.008,2.313
				c1.065,2.532,3.069,6.282,3.126,7.102c0.076,1.13-5.832,15.799-21.211,15.799c0-9.602,9.243-15.905,14.942-20.643
				C258.46,265.519,257.443,261.955,257.968,261.47z"/>
		</g>
		<g>
			<path style="fill-rule:evenodd;clip-rule:evenodd;fill:#F6FAFD;" d="M243.44,284.593c-12.955-1.611-13.058,14.05-19.673,21.49
				C237.247,303.523,242.76,298.794,243.44,284.593z"/>
			<path style="fill-rule:evenodd;clip-rule:evenodd;fill:#F6FAFD;" d="M243.326,284.593c12.956-1.611,13.059,14.05,19.674,21.49
				C249.519,303.523,244.006,298.794,243.326,284.593z"/>
		</g>
		<g>
			<path style="fill-rule:evenodd;clip-rule:evenodd;fill:#28303F;" d="M223.435,309.74c1.787,0,3.235,1.448,3.235,3.235
				c0,1.785-1.448,3.233-3.235,3.233c-1.786,0-3.234-1.448-3.234-3.233C220.201,311.189,221.649,309.74,223.435,309.74z"/>
			<path style="fill-rule:evenodd;clip-rule:evenodd;fill:#28303F;" d="M261.099,309.74c1.786,0,3.233,1.448,3.233,3.235
				c0,1.785-1.447,3.233-3.233,3.233c-1.786,0-3.234-1.448-3.234-3.233C257.864,311.189,259.312,309.74,261.099,309.74z"/>
			<g>
				<path style="fill-rule:evenodd;clip-rule:evenodd;fill:#28303F;" d="M223.534,336.743c1.777,0,3.217,1.44,3.217,3.218
					c0,1.777-1.44,3.218-3.217,3.218c-1.777,0-3.218-1.44-3.218-3.218C220.316,338.184,221.757,336.743,223.534,336.743z"/>
				<path style="fill-rule:evenodd;clip-rule:evenodd;fill:#28303F;" d="M261,336.743c1.776,0,3.217,1.44,3.217,3.218
					c0,1.777-1.44,3.218-3.217,3.218c-1.777,0-3.218-1.44-3.218-3.218C257.782,338.184,259.223,336.743,261,336.743z"/>
			</g>
			<g>
				<path style="fill-rule:evenodd;clip-rule:evenodd;fill:#28303F;" d="M223.878,363.788c1.744,0,3.159,1.415,3.159,3.159
					c0,1.744-1.414,3.158-3.159,3.158c-1.744,0-3.158-1.414-3.158-3.158C220.72,365.203,222.134,363.788,223.878,363.788z"/>
				<path style="fill-rule:evenodd;clip-rule:evenodd;fill:#28303F;" d="M260.656,363.788c1.744,0,3.158,1.415,3.158,3.159
					c0,1.744-1.414,3.158-3.158,3.158c-1.745,0-3.159-1.414-3.159-3.158C257.497,365.203,258.911,363.788,260.656,363.788z"/>
			</g>
		</g>
		<path style="fill-rule:evenodd;clip-rule:evenodd;fill:#28303F;" d="M228.391,270.175c-0.143-0.239-0.065-0.55,0.174-0.692
			c0.24-0.143,0.55-0.065,0.693,0.174c3.968,6.615,11.242,13.338,11.263,13.357c0.206,0.188,0.22,0.509,0.03,0.714
			c-0.114,0.124-0.275,0.178-0.429,0.161c-0.142-0.016-8.026-0.846-13.569-7.068c-0.186-0.209-0.167-0.529,0.042-0.715
			c0.209-0.186,0.529-0.168,0.715,0.042c3.823,4.292,8.81,5.892,11.324,6.454C236.372,280.372,231.437,275.252,228.391,270.175z"/>
		<path style="fill-rule:evenodd;clip-rule:evenodd;fill:#28303F;" d="M256.444,269.656c0.143-0.239,0.453-0.316,0.692-0.174
			c0.239,0.143,0.317,0.453,0.174,0.692c-3.045,5.077-7.98,10.197-10.243,12.427c2.515-0.563,7.5-2.162,11.324-6.454
			c0.186-0.21,0.506-0.228,0.715-0.042c0.209,0.185,0.228,0.506,0.041,0.715c-5.545,6.225-13.432,7.054-13.568,7.068
			c-0.155,0.017-0.316-0.037-0.429-0.161c-0.189-0.205-0.176-0.525,0.029-0.714C245.201,282.994,252.475,276.272,256.444,269.656z"
			/>
		<path style="fill-rule:evenodd;clip-rule:evenodd;fill:#28303F;" d="M231.322,300.955c-0.234,0.149-0.547,0.081-0.697-0.153
			c-0.149-0.236-0.081-0.548,0.154-0.697c1.859-1.189,2.92-3.321,4.137-5.771c1.656-3.332,3.592-7.228,8.208-10.363
			c0.231-0.155,0.544-0.096,0.701,0.136c0.155,0.23,0.096,0.544-0.135,0.701c-4.393,2.983-6.266,6.751-7.867,9.975
			C234.539,297.364,233.42,299.614,231.322,300.955z"/>
		<path style="fill-rule:evenodd;clip-rule:evenodd;fill:#28303F;" d="M256.034,300.104c0.235,0.149,0.305,0.461,0.154,0.697
			c-0.149,0.234-0.461,0.303-0.696,0.153c-2.1-1.341-3.217-3.591-4.501-6.174c-1.602-3.224-3.475-6.991-7.867-9.975
			c-0.231-0.157-0.291-0.471-0.135-0.701c0.156-0.232,0.47-0.291,0.701-0.136c4.616,3.136,6.551,7.031,8.207,10.363
			C253.115,296.783,254.175,298.915,256.034,300.104z"/>
		<path style="fill-rule:evenodd;clip-rule:evenodd;fill:#F6FAFD;" d="M243.195,278.813c3.906,0.034,5.179,2.495,4.806,4.902
			c-0.656,4.229-6.156,8.746-9.574,1.549C236.439,281.077,239.399,278.781,243.195,278.813z"/>
		<g>
			<g>
				<path style="fill-rule:evenodd;clip-rule:evenodd;fill:#E3A779;" d="M242.189,261.481c22.234-2.029,28.579-20.221,28.051-48.929
					c-0.573-31.112-58.441-34.795-57.813-0.696C212.954,240.564,219.258,259.056,242.189,261.481z"/>
				<path style="fill-rule:evenodd;clip-rule:evenodd;fill:#C17453;" d="M270.26,214.652c0.01-1.239,0.003-2.495-0.02-3.77
					c-0.022-1.206-0.141-2.367-0.329-3.491c-2.13-0.406,3.364,0.137-6.896-1.041c-10.262-1.178-19.015-1.694-46.852,1.035
					c-1.315,0.129-2.537,0.269-3.671,0.418c-0.051,0.775-0.08,1.564-0.064,2.383c0.028,1.512,0.078,3,0.151,4.468
					c6.205-1.408,13.958-2.832,27.462-3.404C253.544,210.678,264.682,212.76,270.26,214.652z"/>
				<path style="fill-rule:evenodd;clip-rule:evenodd;fill:#28303F;" d="M217.713,198.471c-6.738,1.617-7.473,7.585-7.311,13.628
					c-3.357,7.264,5.102,25.98,6.049,23.653c0.7-1.722,1.997-10.246,3.056-11.232c6.482-6.03,2.602-17.126,2.143-16.685
					C221.781,203.989,220.655,202.987,217.713,198.471z"/>
				<path style="fill-rule:evenodd;clip-rule:evenodd;fill:#E3A779;" d="M204.267,228.768c-3.023,5.762,2.072,15.337,9.192,14.001
					c4.04-0.758,3.827-7.095,3.151-10.229C215.298,226.454,207.727,222.174,204.267,228.768z"/>
				<path style="fill-rule:evenodd;clip-rule:evenodd;fill:#C17453;" d="M213.81,237.084c0,0-0.849,3.193-4.392,0.896
					c-3.543-2.298-3.629-8.061-1.242-8.059c1.598,0,3.528,1.086,4.664,3.218C213.402,234.194,213.812,236.051,213.81,237.084z"/>
				<path style="fill-rule:evenodd;clip-rule:evenodd;fill:#662E32;" d="M207.705,230.291c-0.219,0.036-0.427-0.112-0.464-0.332
					c-0.036-0.219,0.112-0.427,0.332-0.464c0.015-0.002,5.417-0.997,6.637,7.532c0.031,0.22-0.122,0.425-0.342,0.455
					c-0.221,0.031-0.425-0.121-0.456-0.342C212.31,229.439,207.718,230.289,207.705,230.291z"/>
				<path style="fill-rule:evenodd;clip-rule:evenodd;fill:#28303F;" d="M266.263,198.471c6.738,1.617,7.473,7.585,7.311,13.628
					c0.661,1.431,2.415,12.967-4.778,20.159c-1.777,4.351-1.103-5.146-3.761-8.564c-5.962-7.661-3.724-14.526-3.711-14.633
					C261.192,205.214,263.321,202.987,266.263,198.471z"/>
				<path style="fill-rule:evenodd;clip-rule:evenodd;fill:#E3A779;" d="M270.145,242.508c-4.091-0.48-5.211-5.788-3.537-10.493
					c1.109-3.12,3.675-7.088,7.563-6.982C283.275,225.281,277.49,243.369,270.145,242.508z"/>
				<path style="fill-rule:evenodd;clip-rule:evenodd;fill:#C17453;" d="M269.573,236.498c0,0,0.189,3.691,3.17,2.121
					c2.98-1.571,5.379-9.544,1.879-9.547C271.121,229.068,269.452,233.379,269.573,236.498z"/>
				<path style="fill-rule:evenodd;clip-rule:evenodd;fill:#662E32;" d="M275.314,228.781c0.221,0.032,0.373,0.237,0.341,0.458
					c-0.031,0.22-0.237,0.372-0.457,0.341c-0.013-0.002-4.407-0.753-5.224,6.959c-0.022,0.221-0.221,0.382-0.441,0.359
					c-0.222-0.022-0.383-0.221-0.36-0.441C270.08,227.895,275.3,228.779,275.314,228.781z"/>
			</g>
			<g>
				<path style="fill-rule:evenodd;clip-rule:evenodd;fill:#F6FAFD;" d="M210.27,195.512c-0.023,1.709-0.293,15.596-0.249,17.817
					c22.871-6.207,41.682-6.634,63.559-1.252c0.045-2.223,0.053-14.856,0.029-16.565
					C272.526,182.335,211.353,182.335,210.27,195.512z"/>
				<path style="fill-rule:evenodd;clip-rule:evenodd;fill:#F6FAFD;" d="M241.94,195.512h30.491c0,0,20.699-7.539,16.389-23.106
					c-4.31-15.567-20.189-9.045-24.5-12.98c-4.31-3.936-9.313-11.294-22.38-11.294c-13.138,0-17.625,8.694-21.712,11.294
					c-4.088,2.6-20.634-1.696-24.945,13.871c-4.311,15.567,16.166,22.216,16.166,22.216H241.94z"/>
				<path style="fill-rule:evenodd;clip-rule:evenodd;fill:#28303F;" d="M273.85,193.992c0.142,0.298,0.016,0.654-0.281,0.797
					c-0.298,0.142-0.654,0.017-0.797-0.281c-0.48-1.006-1.355-2.137-2.541-3.251c-1.121-1.053-2.515-2.081-4.111-2.965
					c-0.392-0.218-0.5-0.192-0.754-0.132c-0.591,0.141-1.642,0.393-4.786-0.061c-4.157-0.598-5.717-1.412-6.64-1.895
					c-0.444-0.231-0.698-0.364-1.061-0.307c-1.057,0.167-3.45,0.449-6.091,0.656c-1.862,0.146-3.873,0.256-5.663,0.265
					c-2.061,0.01-4.88-0.211-7.143-0.388c-1.605-0.126-2.927-0.229-3.443-0.213l0.005,0.011c0.004,0.001,0.005,0.003,0.001,0.004
					c-0.55,0.243-2.544,1.126-4.298,1.427c-1.869,0.32-3.724,0.328-4.872,0.332h-0.002c-0.52,0.002-0.875,0.004-0.892,0.01
					c-2.419,0.9-4.444,1.856-6.032,2.928c-1.54,1.04-2.655,2.183-3.301,3.483c-0.146,0.296-0.505,0.417-0.801,0.271
					c-0.296-0.146-0.417-0.505-0.272-0.801c0.745-1.5,1.995-2.793,3.704-3.947c1.662-1.122,3.773-2.119,6.285-3.054
					c0.215-0.08,0.657-0.082,1.305-0.084c1.104-0.005,2.885-0.012,4.676-0.319c1.606-0.275,3.495-1.111,4.018-1.343l0.148-0.063
					c0.063-0.027,0.131-0.044,0.203-0.048c0.557-0.031,1.952,0.077,3.656,0.211c2.261,0.177,5.076,0.396,7.05,0.388
					c1.72-0.008,3.708-0.118,5.573-0.265h0.002c2.633-0.206,4.981-0.481,5.999-0.643c0.748-0.118,1.129,0.08,1.797,0.43
					c0.854,0.445,2.295,1.197,6.255,1.767c2.916,0.419,3.829,0.201,4.343,0.079c0.566-0.136,0.806-0.192,1.61,0.253
					c1.688,0.934,3.162,2.023,4.35,3.14C272.342,191.6,273.305,192.855,273.85,193.992L273.85,193.992z M230.539,186.219
					l-0.087,0.003c-0.054,0.003,0.07,0.002,0.092,0.008L230.539,186.219z"/>
				<path style="fill-rule:evenodd;clip-rule:evenodd;fill:#28303F;" d="M219.133,164.646c0.052-0.274,0.318-0.454,0.592-0.402
					c0.274,0.053,0.455,0.318,0.402,0.592c-0.316,1.638-1.035,5.651,0.091,9.77c1.118,4.087,4.072,8.307,11.103,10.45
					c0.268,0.081,0.418,0.363,0.337,0.63c-0.081,0.267-0.363,0.417-0.63,0.336c-7.448-2.27-10.588-6.778-11.784-11.151
					C218.057,170.528,218.805,166.35,219.133,164.646z"/>
				<path style="fill-rule:evenodd;clip-rule:evenodd;fill:#28303F;" d="M263.089,171.976c0.029-0.277,0.278-0.479,0.557-0.449
					c0.277,0.03,0.479,0.279,0.449,0.557c-0.28,2.55-1.093,5.344-2.977,7.852c-1.877,2.502-4.814,4.71-9.333,6.087
					c-0.268,0.081-0.549-0.069-0.63-0.336c-0.081-0.267,0.069-0.549,0.337-0.63c4.288-1.308,7.059-3.382,8.819-5.728
					C262.066,176.99,262.826,174.371,263.089,171.976z"/>
				<path style="fill-rule:evenodd;clip-rule:evenodd;fill:#28303F;" d="M208.674,180.793c-0.132-0.246-0.04-0.553,0.206-0.685
					c0.246-0.133,0.552-0.04,0.684,0.206c0.525,0.978,2.119,3.262,5.05,4.794c1.807,0.944,4.121,1.601,7.008,1.488
					c0.279-0.012,0.513,0.206,0.525,0.484c0.011,0.279-0.206,0.514-0.485,0.525c-3.087,0.12-5.572-0.587-7.515-1.602
					C210.979,184.347,209.246,181.859,208.674,180.793z"/>
				<path style="fill-rule:evenodd;clip-rule:evenodd;fill:#28303F;" d="M278.011,181.057c0.145-0.239,0.456-0.316,0.695-0.172
					c0.239,0.144,0.316,0.455,0.172,0.695c-0.012,0.02-4.221,7.159-15.61,6.756c-0.278-0.01-0.496-0.244-0.486-0.523
					c0.01-0.278,0.243-0.496,0.522-0.486C274.092,187.708,277.999,181.076,278.011,181.057z"/>
				<path style="fill-rule:evenodd;clip-rule:evenodd;fill:#28303F;" d="M209.883,209.037c11.472-3.113,21.934-4.777,32.28-4.988
					c10.346-0.211,20.561,1.032,31.543,3.733l-0.251,1.02c-10.895-2.681-21.023-3.914-31.271-3.705
					c-10.246,0.208-20.626,1.862-32.025,4.955L209.883,209.037z"/>
			</g>
			<g>
				<path style="fill-rule:evenodd;clip-rule:evenodd;fill:#28303F;" d="M250.25,224.69c0.1,4.26,4.854,4.257,4.755-0.009
					C254.905,220.422,250.151,220.425,250.25,224.69z"/>
				<path style="fill-rule:evenodd;clip-rule:evenodd;fill:#28303F;" d="M258.151,219.178c-1.52-1.192-3.013-1.891-4.589-1.926
					c-2.047-0.046-4.003,1.85-4.756,0.89c-1.155-1.471,1.581-2.974,3.879-3.176c2.245-0.199,5.192,1.428,5.727,3.809
					C258.438,218.97,258.335,219.105,258.151,219.178z"/>
				<path style="fill-rule:evenodd;clip-rule:evenodd;fill:#662E32;" d="M243.334,225.767c0.002-0.297,0.271-0.535,0.6-0.533
					c0.329,0.002,0.594,0.244,0.591,0.54c-0.028,2.741,0.501,4.921,1.015,7.034c0.153,0.629,0.304,1.252,0.445,1.908
					c0.062,0.292-0.15,0.573-0.474,0.63c-0.324,0.056-0.637-0.136-0.699-0.427c-0.131-0.614-0.285-1.246-0.44-1.883
					C243.847,230.871,243.305,228.64,243.334,225.767z"/>
				<path style="fill-rule:evenodd;clip-rule:evenodd;fill:#C17453;" d="M246.108,235.793c-2.561,0.91-5.118,0.917-7.806-0.101
					C239.579,239.428,244.521,240.403,246.108,235.793z"/>
				<path style="fill-rule:evenodd;clip-rule:evenodd;fill:#28303F;" d="M249.676,241.568c5.545-0.164,1.428,5.77-1.306,7.096
					c-3.779,1.833-7.56,1.847-11.425,0.229c-3.027-1.266-5.668-7.144-1.846-7.181L249.676,241.568z"/>
				<path style="fill-rule:evenodd;clip-rule:evenodd;fill:#28303F;" d="M233.834,224.622c0.102,4.259-4.651,4.334-4.753,0.067
					C228.977,220.431,233.73,220.356,233.834,224.622z"/>
				<path style="fill-rule:evenodd;clip-rule:evenodd;fill:#28303F;" d="M225.568,219.27c1.436-1.221,2.865-1.945,4.404-2.01
					c1.999-0.083,3.988,1.776,4.684,0.803c1.067-1.492-1.667-2.944-3.921-3.105c-2.203-0.157-5.014,1.522-5.439,3.913
					C225.28,219.067,225.386,219.201,225.568,219.27z"/>
				<path style="fill-rule:evenodd;clip-rule:evenodd;fill:#C17453;" d="M245.83,253.047c-2.561,0.91-5.118,0.918-7.807-0.101
					C239.301,256.682,244.243,257.658,245.83,253.047z"/>
				<path style="fill-rule:evenodd;clip-rule:evenodd;fill:#FFFFFF;" d="M251.732,245.341c1.125-1.916,1.156-3.867-2.057-3.772
					l-14.576,0.143c-2.104,0.021-2.249,1.811-1.451,3.628C241.11,245.598,248.182,245.451,251.732,245.341z"/>
			</g>
		</g>
	</g>
	<g>
		<g>
			<path style="fill-rule:evenodd;clip-rule:evenodd;fill:#325748;" d="M404.7,437.624c6.596-55.552,18.936-81.736,50.504-132.947
				c-0.657,20.174-5.016,46.042-13.921,68.921c-8.443,21.691-19.076,40.445-32.577,58.193
				C408.066,432.632,405.666,436.581,404.7,437.624z"/>
			<path style="fill-rule:evenodd;clip-rule:evenodd;fill:#497D61;" d="M449.433,320.54c0.145-0.393,0.582-0.591,0.974-0.445
				c0.392,0.146,0.592,0.583,0.446,0.975c-3.382,9.055-6.9,18.655-10.441,28.316c-10.93,29.823-22.071,60.22-34.615,89.042
				c-0.168,0.384-0.615,0.56-0.999,0.393c-0.383-0.168-0.56-0.615-0.392-0.999c12.511-28.745,23.65-59.14,34.58-88.958
				C442.425,339.478,445.843,330.152,449.433,320.54z"/>
		</g>
		<g>
			<path style="fill-rule:evenodd;clip-rule:evenodd;fill:#325748;" d="M402.393,426.322
				c-21.756-41.34-23.161-64.688-18.776-113.463c9.568,14.285,18.465,34.074,21.491,53.69c2.869,18.597,2.153,36.07-1.821,54.045
				C403.098,421.446,402.792,425.194,402.393,426.322z"/>
			<path style="fill-rule:evenodd;clip-rule:evenodd;fill:#497D61;" d="M386.167,326.306c-0.07-0.413,0.207-0.806,0.62-0.876
				c0.413-0.07,0.806,0.207,0.876,0.621c1.413,8.151,2.852,16.067,4.299,24.033c4.597,25.301,9.282,51.09,11.822,76.346
				c0.041,0.416-0.264,0.787-0.68,0.828c-0.418,0.04-0.788-0.264-0.83-0.681c-2.534-25.208-7.213-50.961-11.804-76.227
				C388.983,342.168,387.506,334.036,386.167,326.306z"/>
		</g>
		<g>
			<path style="fill-rule:evenodd;clip-rule:evenodd;fill:#497D61;" d="M426.057,269.263c12.088,59.89-1.813,114.499-27.794,170.462
				C398.263,439.725,384.278,350.528,426.057,269.263z"/>
			<path style="fill-rule:evenodd;clip-rule:evenodd;fill:#325748;" d="M423.184,280.477c0.068-0.412,0.459-0.692,0.873-0.623
				c0.413,0.068,0.692,0.46,0.624,0.873c-4.367,25.811-8.482,51.511-12.465,77.161c-3.936,25.336-7.83,51.213-11.724,77.163
				c-0.061,0.415-0.446,0.702-0.861,0.642c-0.415-0.061-0.702-0.446-0.642-0.861c3.83-25.524,7.678-51.081,11.729-77.175
				C414.723,331.875,418.842,306.141,423.184,280.477z"/>
		</g>
	</g>
	<g>
		<g>
			<g>
				<path style="fill-rule:evenodd;clip-rule:evenodd;fill:#325748;" d="M81.827,437.624
					c-0.759-55.552-10.347-81.736-36.534-132.947c-1.463,20.174,0.177,46.042,6.678,68.921
					c6.164,21.691,14.826,40.445,26.462,58.193C78.984,432.632,80.97,436.581,81.827,437.624z"/>
				<path style="fill-rule:evenodd;clip-rule:evenodd;fill:#497D61;" d="M47.926,321.001c-0.108-0.405,0.132-0.821,0.537-0.93
					s0.821,0.133,0.93,0.537c2.445,9.11,4.948,18.688,7.467,28.323c7.789,29.794,15.729,60.161,25.235,88.955
					c0.131,0.399-0.085,0.828-0.484,0.96c-0.399,0.131-0.828-0.086-0.959-0.484c-9.5-28.775-17.455-59.2-25.258-89.051
					C52.935,339.906,50.49,330.556,47.926,321.001z"/>
			</g>
			<g>
				<path style="fill-rule:evenodd;clip-rule:evenodd;fill:#497D61;" d="M78.161,269.263c-18.38,59.89-10.217,114.499,9.881,170.462
					C88.042,439.725,111.4,350.528,78.161,269.263z"/>
				<path style="fill-rule:evenodd;clip-rule:evenodd;fill:#325748;" d="M78.337,280.649c-0.026-0.419,0.292-0.779,0.711-0.806
					c0.417-0.025,0.778,0.292,0.805,0.711c1.647,25.705,3.063,51.434,4.355,77.181c1.291,25.692,2.459,51.421,3.618,77.173
					c0.018,0.418-0.307,0.772-0.724,0.79c-0.418,0.018-0.772-0.307-0.79-0.725c-1.157-25.722-2.326-51.427-3.618-77.167
					C81.403,332.125,79.989,306.418,78.337,280.649z"/>
			</g>
		</g>
		<g>
			<path style="fill-rule:evenodd;clip-rule:evenodd;fill:#325748;" d="M93.579,426.315c21.756-43.027,23.161-67.33,18.777-118.099
				c-9.568,14.87-18.466,35.467-21.492,55.885c-2.87,19.356-2.154,37.545,1.822,56.254C92.874,421.24,93.179,425.142,93.579,426.315
				z"/>
			<path style="fill-rule:evenodd;clip-rule:evenodd;fill:#497D61;" d="M108.308,321.954c0.069-0.413,0.46-0.692,0.873-0.624
				c0.413,0.069,0.693,0.461,0.623,0.873c-1.397,8.397-2.845,16.686-4.301,25.026c-4.593,26.314-9.276,53.136-11.808,79.345
				c-0.039,0.417-0.409,0.723-0.826,0.684c-0.417-0.039-0.722-0.409-0.683-0.826c2.543-26.318,7.226-53.146,11.82-79.465
				C105.485,338.502,106.954,330.088,108.308,321.954z"/>
		</g>
	</g>
	<g>
		<path style="fill-rule:evenodd;clip-rule:evenodd;fill:#28303F;" d="M101.708,213.947h92.951c1.169,0,2.125,0.957,2.125,2.126l0,0
			c0,1.169-0.956,2.125-2.125,2.125h-92.951c-1.168,0-2.125-0.956-2.125-2.125l0,0C99.583,214.904,100.54,213.947,101.708,213.947z"
			/>
		<g>
			<g>
				<path style="fill-rule:evenodd;clip-rule:evenodd;fill:#E1E9F1;" d="M138.601,249.382c0,1.939-2.853,1.939-2.853,0v-14.246
					c0-1.49,0.639-1.35,1.427-1.35c0.787,0,1.426-0.141,1.426,1.35V249.382z"/>
				<path style="fill-rule:evenodd;clip-rule:evenodd;fill:#662E32;" d="M135.28,234.498c0.735,0.268,2.323,0.582,3.655-0.045
					l0.729-18.987c0.585-3.639-5.734-4.289-5.482,0.089L135.28,234.498z"/>
				<g>
					<path style="fill-rule:evenodd;clip-rule:evenodd;fill:#E1E9F1;" d="M137.43,243.426c6.687,0,12.108,6.409,12.108,14.315
						c0,7.907-5.473,14.38-12.161,14.38c-6.68,0-12.057-6.464-12.057-14.38C125.321,249.835,130.742,243.426,137.43,243.426z"/>
					<path style="fill-rule:evenodd;clip-rule:evenodd;fill:#68738D;" d="M137.43,246.161c5.348,0,9.684,5.126,9.684,11.449
						c0,6.323-4.377,11.5-9.726,11.5c-5.342,0-9.643-5.169-9.643-11.5C127.745,251.287,132.081,246.161,137.43,246.161z"/>
				</g>
			</g>
			<path style="fill-rule:evenodd;clip-rule:evenodd;fill:#68738D;" d="M136.575,213.738c0.393,0.008,0.706,0.333,0.699,0.727
				c-0.008,0.394-0.334,0.706-0.727,0.698l-0.053-0.001c-0.298-0.013-0.949-0.138-1.513-0.578c-0.566-0.442-1.059-1.182-1.059-2.396
				l0.006-0.203c0.018-0.393,0.35-0.698,0.744-0.682c0.393,0.017,0.698,0.351,0.681,0.743l-0.001,0.142
				c0,0.68,0.236,1.063,0.506,1.273c0.271,0.212,0.565,0.271,0.697,0.277L136.575,213.738z"/>
		</g>
		<g>
			<g>
				<path style="fill-rule:evenodd;clip-rule:evenodd;fill:#E1E9F1;" d="M110.801,253.826c0,0.931-2.186,0.931-2.186,0v-24.369
					c0-0.715,0.489-0.647,1.093-0.647c0.603,0,1.092-0.067,1.092,0.647V253.826z"/>
				<path style="fill-rule:evenodd;clip-rule:evenodd;fill:#662E32;" d="M108.257,229.355c0.563,0.205,1.78,0.446,2.8-0.034
					l0.559-14.549c0.448-2.788-4.395-3.286-4.2,0.068L108.257,229.355z"/>
				<path style="fill-rule:evenodd;clip-rule:evenodd;fill:#E1E9F1;" d="M104.136,267.651c-1.579-1.308-0.302-10.396,0.743-11.974
					c1.87-2.826,7.873-2.826,9.744,0c1.045,1.578,2.322,10.666,0.743,11.974C113.391,269.289,106.11,269.289,104.136,267.651
					L104.136,267.651z M106.728,257.161c-0.442,0-0.804,0.361-0.804,0.804v7.925c0,0.442,0.362,0.804,0.804,0.804h0
					c0.442,0,0.803-0.361,0.803-0.804v-7.925C107.532,257.522,107.171,257.161,106.728,257.161L106.728,257.161L106.728,257.161z
					 M109.713,257.161c-0.442,0-0.804,0.361-0.804,0.804v7.925c0,0.442,0.362,0.804,0.804,0.804l0,0
					c0.442,0,0.803-0.361,0.803-0.804v-7.925C110.517,257.522,110.155,257.161,109.713,257.161L109.713,257.161L109.713,257.161z
					 M112.773,257.161L112.773,257.161c-0.442,0-0.804,0.361-0.804,0.804v7.925c0,0.442,0.362,0.804,0.803,0.804h0
					c0.442,0,0.804-0.361,0.804-0.804v-7.925C113.577,257.522,113.216,257.161,112.773,257.161z"/>
			</g>
			<path style="fill-rule:evenodd;clip-rule:evenodd;fill:#68738D;" d="M109.677,213.738c0.394,0.008,0.706,0.333,0.699,0.727
				c-0.008,0.394-0.333,0.706-0.727,0.698l-0.054-0.001c-0.297-0.013-0.949-0.138-1.513-0.578c-0.565-0.441-1.059-1.182-1.059-2.396
				l0.006-0.203c0.017-0.393,0.35-0.698,0.744-0.682c0.394,0.017,0.699,0.351,0.681,0.743l-0.001,0.142
				c0,0.68,0.236,1.063,0.505,1.273c0.272,0.212,0.565,0.271,0.697,0.277L109.677,213.738z"/>
		</g>
		<g>
			<g>
				<path style="fill-rule:evenodd;clip-rule:evenodd;fill:#E1E9F1;" d="M165.117,262.661c0,1.259,2.186,1.259,2.186,0v-32.975
					c0-0.968-0.489-0.876-1.093-0.876c-0.604,0-1.093-0.092-1.093,0.876V262.661z"/>
				<path style="fill-rule:evenodd;clip-rule:evenodd;fill:#662E32;" d="M167.661,229.355c-0.563,0.205-1.78,0.446-2.8-0.034
					l-0.559-14.549c-0.449-2.788,4.394-3.286,4.2,0.068L167.661,229.355z"/>
				<path style="fill-rule:evenodd;clip-rule:evenodd;fill:#E1E9F1;" d="M160.771,258.805c-1.362,1.299-1.912,7.169-1.912,11.911
					c3.955,0.892,10.684,0.892,14.639,0c0-4.742-0.549-10.612-1.912-11.911C169.728,257.033,162.629,257.033,160.771,258.805z"/>
			</g>
			<path style="fill-rule:evenodd;clip-rule:evenodd;fill:#68738D;" d="M166.269,215.163c-0.393,0.008-0.719-0.305-0.726-0.698
				c-0.008-0.393,0.305-0.719,0.698-0.727l0.021-0.001c0.132-0.006,0.425-0.065,0.696-0.277c0.27-0.21,0.506-0.593,0.506-1.273
				l-0.001-0.142c-0.017-0.393,0.289-0.727,0.682-0.743c0.394-0.017,0.727,0.289,0.743,0.682l0.007,0.203
				c0,1.215-0.493,1.954-1.059,2.396c-0.564,0.44-1.215,0.565-1.513,0.578L166.269,215.163z"/>
		</g>
		<g>
			<path style="fill-rule:evenodd;clip-rule:evenodd;fill:#662E32;" d="M190.328,229.355c-0.564,0.205-1.781,0.446-2.801-0.034
				l-0.559-14.549c-0.447-2.788,4.395-3.286,4.201,0.068L190.328,229.355z"/>
			<path style="fill-rule:evenodd;clip-rule:evenodd;fill:#68738D;" d="M189.342,215.163c-0.394,0.008-0.72-0.305-0.727-0.698
				c-0.008-0.393,0.305-0.719,0.698-0.727l0.02-0.001c0.132-0.006,0.426-0.065,0.697-0.277c0.27-0.21,0.506-0.593,0.506-1.273
				l-0.001-0.142c-0.017-0.393,0.288-0.727,0.682-0.743c0.393-0.017,0.726,0.289,0.743,0.682l0.007,0.203
				c0,1.215-0.493,1.954-1.059,2.396c-0.564,0.44-1.215,0.565-1.513,0.578L189.342,215.163z"/>
			<path style="fill-rule:evenodd;clip-rule:evenodd;fill:#E1E9F1;" d="M187.784,259.292c0,0.785,2.185,0.785,2.185,0v-29.936
				c0-0.604-0.489-0.546-1.092-0.546c-0.604,0-1.092-0.058-1.092,0.546V259.292z"/>
			<path style="fill-rule:evenodd;clip-rule:evenodd;fill:#68738D;" d="M189.827,269.536c-5-3.691-3.331-8.725-1.961-10.58
				l6.325,4.669l6.325,4.67C199.145,270.151,194.827,273.228,189.827,269.536z"/>
			<path style="fill-rule:evenodd;clip-rule:evenodd;fill:#E1E9F1;" d="M195.161,262.311c3.493,2.578,5.89,5.258,5.354,5.983
				c-0.536,0.726-3.802-0.775-7.295-3.354c-3.493-2.579-5.89-5.258-5.355-5.984C188.402,258.23,191.668,259.732,195.161,262.311z"/>
		</g>
	</g>
	<g>
		<path style="fill-rule:evenodd;clip-rule:evenodd;fill:#E1E9F1;" d="M357.942,380.369c0.924-0.562,1.612-1.257,1.846-2.213
			c0,0-3.561-17.04-2.717-18.5c0.499-0.864,7.672-0.355,7.672-0.355l0.369-3.696c0,0-10.574-2.662-11.977,2.218
			C351.729,362.703,355.427,376.086,357.942,380.369z"/>
		<path style="fill-rule:evenodd;clip-rule:evenodd;fill:#FFFFFF;" d="M363.438,354.487v3.155c-1.053,0-8.149-0.266-8.515,0.329
			c-1.959,3.194,2.027,18.714,3.019,22.397c-1.203,0.189-3.111,0.074-3.517-1.269c-1.586-5.243-4.861-18.41-2.189-22.768
			C353.928,353.579,360.358,354.487,363.438,354.487z"/>
		<path style="fill-rule:evenodd;clip-rule:evenodd;fill:#68738D;" d="M383.075,351.872c12.58,0,22.779,1.523,22.779,3.401
			c0,1.878-10.199,6.876-22.779,6.876c-12.579,0-22.777-4.998-22.777-6.876C360.298,353.396,370.496,351.872,383.075,351.872z"/>
		<path style="fill-rule:evenodd;clip-rule:evenodd;fill:#FFFFFF;" d="M363.638,414.608l-3.34-59.206
			c-0.002-0.034-0.002-0.069,0.002-0.104c0.209,4.415,45.344,4.415,45.553,0c0.003,0.035,0.003,0.07,0.002,0.104l-3.341,59.206
			C402.163,421.046,363.988,421.035,363.638,414.608z"/>
		<polygon style="fill-rule:evenodd;clip-rule:evenodd;fill:#68738D;" points="404.367,354.063 411.834,355.885 404.985,366.912 		
			"/>
		<path style="fill-rule:evenodd;clip-rule:evenodd;fill:#FFFFFF;" d="M404.485,356.51l7.349-0.625l-6.849,11.027
			C404.554,364.542,404.375,360.405,404.485,356.51z"/>
		<path style="fill-rule:evenodd;clip-rule:evenodd;fill:#28303F;" d="M403.974,357.276c0.005-0.112,0.1-0.198,0.211-0.193
			c0.111,0.005,0.197,0.1,0.193,0.211c-0.066,1.532-0.04,3.151,0.083,4.718v0.005c0.116,1.483,0.319,2.917,0.613,4.181
			c0.026,0.109-0.042,0.219-0.15,0.244c-0.109,0.025-0.218-0.043-0.243-0.151c-0.299-1.284-0.506-2.738-0.624-4.241v-0.005
			C403.933,360.466,403.906,358.83,403.974,357.276z"/>
		<g>
			<path style="fill-rule:evenodd;clip-rule:evenodd;fill:#28303F;" d="M382.568,363.628c0-0.28,0.227-0.507,0.507-0.507
				c0.28,0,0.508,0.227,0.508,0.507v47.473c0,0.28-0.228,0.507-0.508,0.507c-0.279,0-0.507-0.227-0.507-0.507V363.628z"/>
			<path style="fill-rule:evenodd;clip-rule:evenodd;fill:#28303F;" d="M387.831,410.595c0.28,0,0.508,0.228,0.508,0.508
				c0,0.279-0.228,0.507-0.508,0.507h-9.512c-0.279,0-0.506-0.228-0.506-0.507c0-0.28,0.227-0.508,0.506-0.508H387.831z"/>
			<path style="fill-rule:evenodd;clip-rule:evenodd;fill:#28303F;" d="M385.966,405.811c0.28,0,0.508,0.227,0.508,0.507
				c0,0.279-0.227,0.507-0.508,0.507h-5.781c-0.279,0-0.507-0.228-0.507-0.507c0-0.28,0.228-0.507,0.507-0.507H385.966z"/>
			<path style="fill-rule:evenodd;clip-rule:evenodd;fill:#28303F;" d="M387.831,401.027c0.28,0,0.508,0.227,0.508,0.506
				c0,0.28-0.228,0.508-0.508,0.508h-9.512c-0.279,0-0.506-0.227-0.506-0.508c0-0.279,0.227-0.506,0.506-0.506H387.831z"/>
			<path style="fill-rule:evenodd;clip-rule:evenodd;fill:#28303F;" d="M385.966,396.243c0.28,0,0.508,0.228,0.508,0.507
				s-0.227,0.507-0.508,0.507h-5.781c-0.279,0-0.507-0.228-0.507-0.507s0.228-0.507,0.507-0.507H385.966z"/>
			<path style="fill-rule:evenodd;clip-rule:evenodd;fill:#28303F;" d="M387.831,391.459c0.28,0,0.508,0.226,0.508,0.507
				s-0.228,0.507-0.508,0.507h-9.512c-0.279,0-0.506-0.227-0.506-0.507s0.227-0.507,0.506-0.507H387.831z"/>
			<path style="fill-rule:evenodd;clip-rule:evenodd;fill:#28303F;" d="M385.966,386.675c0.28,0,0.508,0.228,0.508,0.507
				c0,0.28-0.227,0.507-0.508,0.507h-5.781c-0.279,0-0.507-0.227-0.507-0.507c0-0.279,0.228-0.507,0.507-0.507H385.966z"/>
			<path style="fill-rule:evenodd;clip-rule:evenodd;fill:#28303F;" d="M387.831,381.891c0.28,0,0.508,0.229,0.508,0.508
				s-0.228,0.507-0.508,0.507h-9.512c-0.279,0-0.506-0.228-0.506-0.507s0.227-0.508,0.506-0.508H387.831z"/>
			<path style="fill-rule:evenodd;clip-rule:evenodd;fill:#28303F;" d="M385.966,377.107c0.28,0,0.508,0.227,0.508,0.507
				c0,0.279-0.227,0.507-0.508,0.507h-5.781c-0.279,0-0.507-0.228-0.507-0.507c0-0.28,0.228-0.507,0.507-0.507H385.966z"/>
			<path style="fill-rule:evenodd;clip-rule:evenodd;fill:#28303F;" d="M387.831,372.322c0.28,0,0.508,0.228,0.508,0.508
				c0,0.279-0.228,0.507-0.508,0.507h-9.512c-0.279,0-0.506-0.228-0.506-0.507c0-0.28,0.227-0.508,0.506-0.508H387.831z"/>
			<path style="fill-rule:evenodd;clip-rule:evenodd;fill:#28303F;" d="M385.966,367.539c0.28,0,0.508,0.227,0.508,0.507
				c0,0.279-0.227,0.507-0.508,0.507h-5.781c-0.279,0-0.507-0.228-0.507-0.507c0-0.28,0.228-0.507,0.507-0.507H385.966z"/>
		</g>
	</g>
	<g>
		<polygon style="fill-rule:evenodd;clip-rule:evenodd;fill:#CE8B45;" points="35.453,430.009 464.547,430.009 419.317,413.595 
			80.219,413.595 		"/>
		<path style="fill-rule:evenodd;clip-rule:evenodd;fill:#662E32;" d="M35.706,430.009c142.87-0.702,285.739-0.692,428.609,0
			c0.309,3.92,0.309,7.681,0,11.284c-142.771,1.119-285.614,1.416-428.609,0C35.381,437.501,35.357,433.737,35.706,430.009z"/>
	</g>
	<path style="fill-rule:evenodd;clip-rule:evenodd;fill:#A14D32;" d="M242.267,426.596c20.997,0,38.124-2.141,38.124-4.765
		c0-2.625-17.126-4.766-38.124-4.766c-20.998,0-38.124,2.141-38.124,4.766C204.144,424.455,221.269,426.596,242.267,426.596z"/>
	<path style="fill-rule:evenodd;clip-rule:evenodd;fill:#E3A779;" d="M271.003,339.962c7.653,4.73,10.02,7.653,10.438,9.045
		c0.417,1.392-13.499-0.278-13.499-0.278L271.003,339.962z"/>
	<g>
		<g>
			<path style="fill-rule:evenodd;clip-rule:evenodd;fill:#662E32;" d="M430.652,414.951c1.509,0,3.121-1.844,2.659-4.464
				c-0.429-2.435-2.26-3.211-3.253-3.349l-21.004,2.467c-1.677,0.71-1.463,4.434,0.346,5.336L430.652,414.951z"/>
			<path style="fill-rule:evenodd;clip-rule:evenodd;fill:#B2673B;" d="M433.327,412.165c0.088-0.509,0.092-1.073-0.016-1.678
				c-0.429-2.435-2.26-3.21-3.253-3.349l-12.538,1.473c-0.177,1.339,0.331,2.987,1.454,3.548L433.327,412.165z"/>
			<path style="fill-rule:evenodd;clip-rule:evenodd;fill:#B2673B;" d="M342.117,406.545l68.852-2.959
				c0.091-0.014,0.183-0.023,0.276-0.025c0.067-0.001,0.134,0,0.2,0.005l0.163-0.007l0.001,0.024
				c2.183,0.315,4.135,3.887,4.449,8.289c0.33,4.62-1.266,8.414-3.57,8.512l0.001,0.032l-69.377,5.177L342.117,406.545z"/>
			<path style="fill-rule:evenodd;clip-rule:evenodd;fill:#662E32;" d="M342.712,406.545c2.646,0,5.014,4.278,5.29,9.557
				c0.275,5.278-1.646,9.557-4.29,9.557c-2.647,0-5.016-4.278-5.291-9.557C338.144,410.823,340.066,406.545,342.712,406.545z"/>
			<path style="fill-rule:evenodd;clip-rule:evenodd;fill:#662E32;" d="M321.573,412.81l20.447,0.24
				c2.064,0.607,2.623,4.876,0.758,6.121l-20.23,2.143C313.149,422.31,312.99,412.711,321.573,412.81z"/>
			<path style="fill-rule:evenodd;clip-rule:evenodd;fill:#B2673B;" d="M321.573,412.811l20.447,0.239
				c0.977,0.287,1.615,1.393,1.82,2.611l-19.734,2.09c-4.49,0.475-6.87-1.467-7.197-3.615
				C317.955,413.323,319.512,412.787,321.573,412.811z"/>
			<path style="fill-rule:evenodd;clip-rule:evenodd;fill:#662E32;" d="M400.172,416.786c-8.026,0.664-18.384,1.345-28.053,1.929
				c-9.934,0.6-19.141,1.098-24.344,1.37c-0.489,2.751-1.65,4.798-3.148,5.396l66.978-4.998l0.885-0.066l-0.001-0.032
				c0.047-0.002,0.095-0.007,0.142-0.011c1.431-0.156,2.572-1.753,3.119-4.074c0.101-0.429,0.182-0.881,0.24-1.354
				c0.038-0.306,0.066-0.62,0.085-0.942c-0.689,0.333-1.555,0.647-2.632,0.942c-0.34,0.092-0.7,0.183-1.082,0.271
				c-0.324,0.075-0.664,0.148-1.02,0.221c-2.101,0.422-4.777,0.79-8.175,1.094C402.212,416.614,401.212,416.7,400.172,416.786z"/>
		</g>
		<path style="fill-rule:evenodd;clip-rule:evenodd;fill:#D49559;" d="M409.212,406.005c0.034,0.679-28.552,2.334-44.754,3.039
			c-13.254,0.579-14.833,0.375-13.987-0.289c-1.02-0.663,0.568-1.1,13.874-1.75C380.549,406.211,409.181,405.311,409.212,406.005z"
			/>
	</g>
	<g>
		<g>
			<path style="fill-rule:evenodd;clip-rule:evenodd;fill:#68738D;" d="M250.203,372.486c27.866,3.246,50.049,9.36,49.548,13.656
				c-0.5,4.297-25.566,12.882-53.432,9.637c-27.866-3.245-47.979-17.091-47.479-21.388
				C199.34,370.094,222.336,369.242,250.203,372.486z"/>
			<path style="fill-rule:evenodd;clip-rule:evenodd;fill:#FFFFFF;" d="M200.202,377.323c-0.153,0.066-0.332-0.004-0.399-0.157
				c-0.067-0.153,0.004-0.332,0.157-0.398c3.122-1.364,9.792-2.081,18.656-2.101c8.641-0.019,19.38,0.623,30.954,1.971l1.27,0.149
				l1.26,0.154c0.167,0.021,0.285,0.173,0.266,0.339c-0.021,0.167-0.173,0.285-0.339,0.265l-1.258-0.154l-1.267-0.149
				c-11.559-1.346-22.273-1.986-30.885-1.968C209.834,375.292,203.248,375.992,200.202,377.323L200.202,377.323z M259.283,378.529
				c-0.165-0.023-0.28-0.178-0.256-0.344c0.023-0.166,0.179-0.28,0.344-0.257c9.48,1.397,17.958,3.096,24.63,4.874
				c6.726,1.793,11.632,3.676,13.902,5.421c0.133,0.103,0.158,0.294,0.056,0.427c-0.103,0.132-0.293,0.156-0.426,0.054
				c-2.206-1.695-7.037-3.542-13.688-5.315C277.198,381.617,268.744,379.924,259.283,378.529z"/>
		</g>
		<path style="fill-rule:evenodd;clip-rule:evenodd;fill:#662E32;" d="M249.748,398.255l-3.189-1.386
			c5.367-20.654,15.944-45.468,22.092-60.266c1.476-3.556,6.732-1.679,5.513,1.975C268.238,356.33,258.212,379.805,249.748,398.255z
			"/>
		<g>
			<path style="fill-rule:evenodd;clip-rule:evenodd;fill:#E1E9F1;" d="M244.116,424.746c-29.354-3.418-48.008-18.857-45.276-50.354
				c-0.5,4.297,21.684,10.411,49.549,13.656c27.866,3.245,50.861,2.392,51.362-1.905
				C294.511,421.943,268.108,427.541,244.116,424.746z"/>
			<path style="fill-rule:evenodd;clip-rule:evenodd;fill:#68738D;" d="M297.374,392.122c0.154-0.066,0.333,0.004,0.4,0.157
				c0.066,0.153-0.004,0.332-0.158,0.399c-3.12,1.363-9.791,2.081-18.655,2.1c-8.641,0.019-19.38-0.622-30.953-1.971
				c-11.633-1.354-22.282-3.211-30.71-5.227c-8.64-2.066-14.957-4.308-17.625-6.359c-0.133-0.102-0.157-0.293-0.055-0.426
				c0.103-0.132,0.293-0.156,0.425-0.055c2.602,2.001,8.838,4.204,17.395,6.251c8.398,2.009,19.021,3.859,30.639,5.213
				c11.558,1.346,22.272,1.985,30.884,1.968C287.743,394.153,294.328,393.453,297.374,392.122z"/>
		</g>
		<g>
			<path style="fill-rule:evenodd;clip-rule:evenodd;fill:#28303F;" d="M345.874,343.407c-6.704-12.758-34.019-8.008-36.281,3.232
				c-1.556,10.058-0.804,19.293,9.99,23.44C338.586,377.381,355.842,362.378,345.874,343.407z"/>
			<path style="fill-rule:evenodd;clip-rule:evenodd;fill:#E3A779;" d="M281.173,347.357c-3.523,5.859-3.202,13.061,0.817,18.734
				c21.204,1.087,38.858,3.279,49.789,0.75c15.442-3.574,16.961-24.544-6.279-25.141
				C315.842,341.454,296.524,347.209,281.173,347.357z"/>
			<path style="fill-rule:evenodd;clip-rule:evenodd;fill:#E3A779;" d="M286.551,347.672l1.284,18.28
				c-6.233,1.794-25.695,1.724-30.469-2.335c-1.391-1.183-0.417-3.478-0.417-3.478c-0.705-1.117-1.576-3.311-0.041-5.149
				c0,0-1.072-2.017-1.281-2.853c-0.208-0.835,0.905-2.853,0.905-2.853s-1.184-0.557-0.975-2.505
				c0.123-1.151,0.563-1.987,1.29-2.521c0.37-0.151,0.807-0.226,1.321-0.212C261.638,344.144,280.569,345.561,286.551,347.672z"/>
			<g>
				<path style="fill-rule:evenodd;clip-rule:evenodd;fill:#662E32;" d="M256.551,350.011c-0.278-0.027-0.48-0.274-0.453-0.553
					c0.026-0.277,0.274-0.48,0.552-0.452c3.789,0.378,7.027,0.822,7.037,0.822c0.277,0.034,0.476,0.287,0.441,0.565
					c-0.033,0.278-0.286,0.476-0.563,0.441C263.555,350.833,260.138,350.369,256.551,350.011z"/>
				<path style="fill-rule:evenodd;clip-rule:evenodd;fill:#662E32;" d="M256.814,355.54c-0.278-0.027-0.48-0.275-0.454-0.553
					c0.027-0.277,0.275-0.48,0.553-0.454c3.789,0.379,7.027,0.823,7.037,0.824c0.277,0.034,0.476,0.287,0.441,0.565
					c-0.034,0.277-0.287,0.476-0.564,0.441C263.817,356.362,260.401,355.897,256.814,355.54z"/>
				<path style="fill-rule:evenodd;clip-rule:evenodd;fill:#662E32;" d="M257.429,361.093c-0.277-0.027-0.48-0.274-0.454-0.552
					c0.027-0.278,0.275-0.48,0.553-0.454c3.788,0.379,7.028,0.823,7.038,0.823c0.277,0.034,0.475,0.287,0.441,0.564
					c-0.034,0.277-0.287,0.476-0.564,0.441C264.433,361.915,261.016,361.45,257.429,361.093z"/>
			</g>
		</g>
		<g>
			<path style="fill-rule:evenodd;clip-rule:evenodd;fill:#28303F;" d="M143.899,364.942c2.13-21.939,46.179-15.895,38.823,7.868
				c-5.556,17.947-22.689,14.256-32.161,8.616C145.051,378.148,143.336,370.746,143.899,364.942z"/>
			<g>
				<path style="fill-rule:evenodd;clip-rule:evenodd;fill:#E3A779;" d="M201.25,414.101c-16.356-6.796-43.194-21.255-49.727-34.602
					c-9.356-19.117,16.161-24.406,24.539-13.977c8.378,10.429,15.573,21.139,26.318,26.864
					C213.125,398.111,212.531,409.861,201.25,414.101z"/>
				<path style="fill-rule:evenodd;clip-rule:evenodd;fill:#E3A779;" d="M218.171,385.564c0.653,0.824,1.721,3.349-4.513,9
					c8.079,2.273,21.332,3.085,21.22,6.632c-0.111,3.547-4.868,2.604-14.2,1.705c4.398,1.268,16.01,2.995,15.588,6.129
					c-0.422,3.133-8.951,0.802-16.208-0.683c4.019,1.781,13.333,3.568,12.788,6.748c-0.545,3.18-11.258-1.284-15.996-1.999
					c4.125,1.97,11.279,3.37,10.346,5.831c-0.473,1.246-23.322-1.73-29.129-6.796c-5.482-4.782-8.085-17.433,0.504-18.854
					C208.155,391.692,217.517,384.738,218.171,385.564z"/>
				<g>
					<path style="fill-rule:evenodd;clip-rule:evenodd;fill:#662E32;" d="M217.253,402.505c-0.27-0.074-0.427-0.353-0.353-0.621
						c0.074-0.27,0.353-0.427,0.622-0.352c3.593,1.003,6.792,2.022,6.801,2.025c0.266,0.086,0.412,0.371,0.325,0.637
						c-0.086,0.266-0.372,0.411-0.637,0.325C224.001,404.516,220.801,403.496,217.253,402.505z"/>
					<path style="fill-rule:evenodd;clip-rule:evenodd;fill:#662E32;" d="M216.562,407.996c-0.269-0.074-0.426-0.352-0.352-0.621
						c0.074-0.269,0.352-0.427,0.621-0.353c3.592,1.003,6.792,2.022,6.801,2.025c0.265,0.086,0.411,0.372,0.325,0.638
						c-0.086,0.266-0.372,0.41-0.638,0.324C223.31,410.007,220.11,408.987,216.562,407.996z"/>
					<path style="fill-rule:evenodd;clip-rule:evenodd;fill:#662E32;" d="M216.213,413.573c-0.269-0.073-0.426-0.354-0.352-0.621
						c0.074-0.27,0.353-0.427,0.622-0.353c3.592,1.004,6.792,2.022,6.801,2.025c0.266,0.086,0.411,0.372,0.325,0.637
						c-0.086,0.266-0.372,0.412-0.638,0.326C222.961,415.583,219.761,414.565,216.213,413.573z"/>
				</g>
			</g>
		</g>
	</g>
	<g>
		<g>
			<path style="fill-rule:evenodd;clip-rule:evenodd;fill:#662E32;" d="M308.315,186.991h117.058c2.146,0,3.9,1.756,3.9,3.9v92.293
				c0,2.145-1.755,3.899-3.9,3.899H308.315c-2.145,0-3.9-1.755-3.9-3.899v-92.293C304.415,188.747,306.17,186.991,308.315,186.991z"
				/>
			<path style="fill-rule:evenodd;clip-rule:evenodd;fill:#CE8B45;" d="M309.575,186.991h115.798c2.146,0,3.9,1.756,3.9,3.9v91.032
				H313.475c-2.146,0-3.899-1.754-3.899-3.899V186.991z"/>
			<path style="fill-rule:evenodd;clip-rule:evenodd;fill:#CE8B45;" d="M366.845,177.834c5.698,0,10.318,4.62,10.318,10.318
				c0,5.699-4.62,10.319-10.318,10.319c-5.699,0-10.319-4.62-10.319-10.319C356.525,182.454,361.145,177.834,366.845,177.834
				L366.845,177.834z M366.845,184.412c-2.065,0-3.74,1.675-3.74,3.74c0,2.066,1.675,3.74,3.74,3.74c2.065,0,3.74-1.675,3.74-3.74
				C370.585,186.087,368.91,184.412,366.845,184.412z"/>
			<path style="fill-rule:evenodd;clip-rule:evenodd;fill:#662E32;" d="M366.845,191.893c2.06,0,3.74-1.681,3.74-3.74
				c0-2.061-1.681-3.74-3.74-3.74c-2.061,0-3.74,1.68-3.74,3.74C363.104,190.212,364.784,191.893,366.845,191.893z"/>
			<path style="fill-rule:evenodd;clip-rule:evenodd;fill:#8B9AB8;" d="M368.974,191.227c-0.604,0.419-1.338,0.665-2.129,0.665
				c-2.065,0-3.74-1.675-3.74-3.74c0-0.235,0.022-0.466,0.064-0.689c0.603-0.419,1.338-0.664,2.129-0.664
				c2.065,0,3.74,1.674,3.74,3.739C369.037,190.773,369.015,191.004,368.974,191.227z"/>
			<path style="fill-rule:evenodd;clip-rule:evenodd;fill:#B97C43;" d="M309.575,226.971v-2.418
				c7.092-0.424,13.526-0.595,18.253-0.406c13.638,0.545,19.251,2.102,22.383,2.778c10.636,2.308-5.013,4.135-8.567,3.802
				c25.086-2.533-9.799-4.002-13.841-4.163C323.085,226.375,316.659,226.547,309.575,226.971z"/>
			<path style="fill-rule:evenodd;clip-rule:evenodd;fill:#B97C43;" d="M309.575,238.907v-2.417
				c4.762-0.023,9.892-0.072,15.411-0.147c48.246-0.661,74.167-2.757,84.893-5.224c5.24-1.205,5.119-2.466-0.189-3.816
				c-10.181-2.591-31.646-4.586-55.03-4.586c-12.324,0-27.933,0.327-45.085,0.851v-2.423c17.172-0.525,32.784-0.854,45.085-0.854
				c23.428,0,44.968,2.008,55.213,4.614c10.506,2.674,11.972,5.898,0.172,8.611c-10.769,2.477-36.747,4.581-85.053,5.242
				C319.471,238.834,314.339,238.883,309.575,238.907z"/>
			<path style="fill-rule:evenodd;clip-rule:evenodd;fill:#B97C43;" d="M429.273,245.096v1.365
				c-40.387,1.7-81.52,2.16-119.698,1.806v-2.262C347.88,246.731,388.443,246.707,429.273,245.096z"/>
			<path style="fill-rule:evenodd;clip-rule:evenodd;fill:#B97C43;" d="M429.273,209.236v1.017
				c-43.853-2.191-86.175-4.359-119.698-6.114v-2.414C343.506,203.582,384.898,206.771,429.273,209.236z"/>
			<path style="fill-rule:evenodd;clip-rule:evenodd;fill:#B97C43;" d="M429.273,198.379c-45.272,0.206-86.597,0.809-119.698,1.267
				v-2.182c33.289-0.166,75.432-0.36,119.698-0.513V198.379z"/>
			<path style="fill-rule:evenodd;clip-rule:evenodd;fill:#B97C43;" d="M429.273,271.102v-2.416
				c-4.763-0.024-9.892-0.073-15.412-0.148c-48.245-0.66-74.167-2.757-84.892-5.224c-5.24-1.205-5.118-2.466,0.189-3.816
				c10.181-2.59,31.647-4.587,55.03-4.587c12.323,0,27.932,0.327,45.085,0.852v-2.422c-17.172-0.526-32.785-0.854-45.085-0.854
				c-23.428,0-44.969,2.008-55.213,4.614c-10.506,2.674-11.972,5.898-0.174,8.611c10.77,2.477,36.748,4.581,85.055,5.242
				C419.377,271.028,424.509,271.077,429.273,271.102z"/>
			<path style="fill-rule:evenodd;clip-rule:evenodd;fill:#B97C43;" d="M309.575,277.29v1.365c40.386,1.7,81.519,2.16,119.698,1.807
				v-2.263C390.968,278.926,350.404,278.901,309.575,277.29z"/>
		</g>
		<g>
			<rect x="321.185" y="199.453" style="fill-rule:evenodd;clip-rule:evenodd;fill:#28303F;" width="96.479" height="16.319"/>
		</g>
	</g>
	<g>
		<g>
			<path style="fill-rule:evenodd;clip-rule:evenodd;fill:#D4BDB0;" d="M383.744,71.345c0.296,0,0.536,0.24,0.536,0.537
				c0,0.296-0.24,0.536-0.536,0.536h-9.56c-0.296,0-0.536-0.24-0.536-0.536c0-0.297,0.24-0.537,0.536-0.537H383.744z"/>
			<path style="fill-rule:evenodd;clip-rule:evenodd;fill:#D4BDB0;" d="M422.965,71.345c0.296,0,0.536,0.24,0.536,0.537
				c0,0.296-0.24,0.536-0.536,0.536h-37.018c-0.297,0-0.537-0.24-0.537-0.536c0-0.297,0.24-0.537,0.537-0.537H422.965z"/>
			<path style="fill-rule:evenodd;clip-rule:evenodd;fill:#D4BDB0;" d="M456.862,71.345c0.296,0,0.536,0.24,0.536,0.537
				c0,0.296-0.24,0.536-0.536,0.536h-30.347c-0.296,0-0.536-0.24-0.536-0.536c0-0.297,0.24-0.537,0.536-0.537H456.862z"/>
			<path style="fill-rule:evenodd;clip-rule:evenodd;fill:#D4BDB0;" d="M382.923,55.728c0.296,0,0.536,0.24,0.536,0.536
				c0,0.297-0.24,0.537-0.536,0.537h-29.378c-0.296,0-0.536-0.24-0.536-0.537c0-0.296,0.24-0.536,0.536-0.536H382.923z"/>
			<path style="fill-rule:evenodd;clip-rule:evenodd;fill:#D4BDB0;" d="M423.449,55.728c0.296,0,0.536,0.24,0.536,0.536
				c0,0.297-0.24,0.537-0.536,0.537h-36.684c-0.296,0-0.536-0.24-0.536-0.537c0-0.296,0.24-0.536,0.536-0.536H423.449z"/>
			<path style="fill-rule:evenodd;clip-rule:evenodd;fill:#D4BDB0;" d="M456.862,55.728c0.296,0,0.536,0.24,0.536,0.536
				c0,0.297-0.24,0.537-0.536,0.537h-30.466c-0.296,0-0.536-0.24-0.536-0.537c0-0.296,0.24-0.536,0.536-0.536H456.862z"/>
			<path style="fill-rule:evenodd;clip-rule:evenodd;fill:#D4BDB0;" d="M402.997,40.109c0.296,0,0.536,0.241,0.536,0.537
				c0,0.296-0.24,0.536-0.536,0.536h-36.534c-0.296,0-0.536-0.24-0.536-0.536c0-0.296,0.24-0.537,0.536-0.537H402.997z"/>
			<path style="fill-rule:evenodd;clip-rule:evenodd;fill:#D4BDB0;" d="M442.515,40.109c0.297,0,0.537,0.241,0.537,0.537
				c0,0.296-0.24,0.536-0.537,0.536h-36.084c-0.297,0-0.537-0.24-0.537-0.536c0-0.296,0.24-0.537,0.537-0.537H442.515z"/>
			<path style="fill-rule:evenodd;clip-rule:evenodd;fill:#D4BDB0;" d="M405.394,54.533c0,0.296-0.24,0.536-0.536,0.536
				s-0.536-0.24-0.536-0.536V42.237c0-0.296,0.24-0.536,0.536-0.536s0.536,0.24,0.536,0.536V54.533z"/>
			<path style="fill-rule:evenodd;clip-rule:evenodd;fill:#D4BDB0;" d="M405.394,86.104c0,0.297-0.24,0.537-0.536,0.537
				s-0.536-0.24-0.536-0.537V73.428c0-0.296,0.24-0.536,0.536-0.536s0.536,0.24,0.536,0.536V86.104z"/>
			<path style="fill-rule:evenodd;clip-rule:evenodd;fill:#D4BDB0;" d="M425.313,69.868c0,0.297-0.24,0.537-0.536,0.537
				s-0.536-0.24-0.536-0.537V58.279c0-0.296,0.24-0.536,0.536-0.536s0.536,0.24,0.536,0.536V69.868z"/>
			<path style="fill-rule:evenodd;clip-rule:evenodd;fill:#D4BDB0;" d="M445.233,54.23c0,0.296-0.24,0.536-0.536,0.536
				s-0.536-0.24-0.536-0.536V42.104c0-0.296,0.24-0.536,0.536-0.536s0.536,0.24,0.536,0.536V54.23z"/>
			<path style="fill-rule:evenodd;clip-rule:evenodd;fill:#D4BDB0;" d="M445.233,85.823c0,0.296-0.24,0.537-0.536,0.537
				s-0.536-0.241-0.536-0.537V73.485c0-0.296,0.24-0.536,0.536-0.536s0.536,0.24,0.536,0.536V85.823z"/>
			<path style="fill-rule:evenodd;clip-rule:evenodd;fill:#D4BDB0;" d="M385.474,69.853c0,0.297-0.24,0.537-0.536,0.537
				c-0.297,0-0.537-0.24-0.537-0.537V58.036c0-0.296,0.24-0.536,0.537-0.536c0.296,0,0.536,0.24,0.536,0.536V69.853z"/>
			<path style="fill-rule:evenodd;clip-rule:evenodd;fill:#D4BDB0;" d="M365.683,54.565c0,0.296-0.24,0.536-0.536,0.536
				s-0.536-0.24-0.536-0.536V42.44c0-0.296,0.24-0.536,0.536-0.536s0.536,0.24,0.536,0.536V54.565z"/>
			<path style="fill-rule:evenodd;clip-rule:evenodd;fill:#D4BDB0;" d="M403.365,86.962c0.296,0,0.536,0.241,0.536,0.537
				s-0.24,0.536-0.536,0.536h-9.447c-0.297,0-0.537-0.24-0.537-0.536s0.24-0.537,0.537-0.537H403.365z"/>
			<path style="fill-rule:evenodd;clip-rule:evenodd;fill:#D4BDB0;" d="M442.883,86.962c0.297,0,0.537,0.241,0.537,0.537
				s-0.24,0.536-0.537,0.536h-36.084c-0.297,0-0.537-0.24-0.537-0.536s0.24-0.537,0.537-0.537H442.883z"/>
		</g>
		<g>
			<path style="fill-rule:evenodd;clip-rule:evenodd;fill:#D4BDB0;" d="M119.162,72.418c-0.296,0-0.536-0.24-0.536-0.536
				c0-0.297,0.24-0.537,0.536-0.537h9.561c0.297,0,0.537,0.24,0.537,0.537c0,0.296-0.24,0.536-0.537,0.536H119.162z"/>
			<path style="fill-rule:evenodd;clip-rule:evenodd;fill:#D4BDB0;" d="M79.942,72.418c-0.296,0-0.537-0.24-0.537-0.536
				c0-0.297,0.241-0.537,0.537-0.537h37.019c0.296,0,0.537,0.24,0.537,0.537c0,0.296-0.24,0.536-0.537,0.536H79.942z"/>
			<path style="fill-rule:evenodd;clip-rule:evenodd;fill:#D4BDB0;" d="M46.044,72.418c-0.296,0-0.537-0.24-0.537-0.536
				c0-0.297,0.24-0.537,0.537-0.537h30.346c0.296,0,0.537,0.24,0.537,0.537c0,0.296-0.24,0.536-0.537,0.536H46.044z"/>
			<path style="fill-rule:evenodd;clip-rule:evenodd;fill:#D4BDB0;" d="M119.984,56.801c-0.296,0-0.536-0.24-0.536-0.537
				c0-0.296,0.24-0.536,0.536-0.536h29.377c0.296,0,0.536,0.24,0.536,0.536c0,0.297-0.24,0.537-0.536,0.537H119.984z"/>
			<path style="fill-rule:evenodd;clip-rule:evenodd;fill:#D4BDB0;" d="M79.458,56.801c-0.296,0-0.537-0.24-0.537-0.537
				c0-0.296,0.24-0.536,0.537-0.536h36.683c0.296,0,0.536,0.24,0.536,0.536c0,0.297-0.24,0.537-0.536,0.537H79.458z"/>
			<path style="fill-rule:evenodd;clip-rule:evenodd;fill:#D4BDB0;" d="M46.044,56.801c-0.296,0-0.537-0.24-0.537-0.537
				c0-0.296,0.24-0.536,0.537-0.536h30.465c0.297,0,0.537,0.24,0.537,0.536c0,0.297-0.24,0.537-0.537,0.537H46.044z"/>
			<path style="fill-rule:evenodd;clip-rule:evenodd;fill:#D4BDB0;" d="M99.91,41.183c-0.296,0-0.537-0.24-0.537-0.536
				c0-0.296,0.24-0.537,0.537-0.537h36.534c0.296,0,0.537,0.241,0.537,0.537c0,0.296-0.241,0.536-0.537,0.536H99.91z"/>
			<path style="fill-rule:evenodd;clip-rule:evenodd;fill:#D4BDB0;" d="M60.392,41.183c-0.296,0-0.537-0.24-0.537-0.536
				c0-0.296,0.24-0.537,0.537-0.537h36.084c0.296,0,0.537,0.241,0.537,0.537c0,0.296-0.24,0.536-0.537,0.536H60.392z"/>
			<path style="fill-rule:evenodd;clip-rule:evenodd;fill:#D4BDB0;" d="M98.586,54.533c0,0.296-0.24,0.536-0.537,0.536
				c-0.296,0-0.537-0.24-0.537-0.536V42.237c0-0.296,0.24-0.536,0.537-0.536c0.297,0,0.537,0.24,0.537,0.536V54.533z"/>
			<path style="fill-rule:evenodd;clip-rule:evenodd;fill:#D4BDB0;" d="M98.586,86.104c0,0.297-0.24,0.537-0.537,0.537
				c-0.296,0-0.537-0.24-0.537-0.537V73.428c0-0.296,0.24-0.536,0.537-0.536c0.297,0,0.537,0.24,0.537,0.536V86.104z"/>
			<path style="fill-rule:evenodd;clip-rule:evenodd;fill:#D4BDB0;" d="M78.665,69.868c0,0.297-0.24,0.537-0.536,0.537
				c-0.296,0-0.537-0.24-0.537-0.537V58.279c0-0.296,0.24-0.536,0.537-0.536c0.296,0,0.536,0.24,0.536,0.536V69.868z"/>
			<path style="fill-rule:evenodd;clip-rule:evenodd;fill:#D4BDB0;" d="M58.746,54.23c0,0.296-0.24,0.536-0.536,0.536
				c-0.296,0-0.537-0.24-0.537-0.536V42.104c0-0.296,0.24-0.536,0.537-0.536c0.296,0,0.536,0.24,0.536,0.536V54.23z"/>
			<path style="fill-rule:evenodd;clip-rule:evenodd;fill:#D4BDB0;" d="M58.746,85.823c0,0.296-0.24,0.537-0.536,0.537
				c-0.296,0-0.537-0.241-0.537-0.537V73.485c0-0.296,0.24-0.536,0.537-0.536c0.296,0,0.536,0.24,0.536,0.536V85.823z"/>
			<path style="fill-rule:evenodd;clip-rule:evenodd;fill:#D4BDB0;" d="M118.506,69.853c0,0.297-0.24,0.537-0.537,0.537
				c-0.296,0-0.536-0.24-0.536-0.537V58.036c0-0.296,0.24-0.536,0.536-0.536c0.296,0,0.537,0.24,0.537,0.536V69.853z"/>
			<path style="fill-rule:evenodd;clip-rule:evenodd;fill:#D4BDB0;" d="M138.297,54.565c0,0.296-0.241,0.536-0.537,0.536
				c-0.297,0-0.537-0.24-0.537-0.536V42.44c0-0.296,0.24-0.536,0.537-0.536c0.296,0,0.537,0.24,0.537,0.536V54.565z"/>
			<path style="fill-rule:evenodd;clip-rule:evenodd;fill:#D4BDB0;" d="M99.542,88.035c-0.297,0-0.537-0.24-0.537-0.536
				s0.24-0.537,0.537-0.537h9.447c0.296,0,0.537,0.241,0.537,0.537s-0.24,0.536-0.537,0.536H99.542z"/>
			<path style="fill-rule:evenodd;clip-rule:evenodd;fill:#D4BDB0;" d="M60.023,88.035c-0.296,0-0.537-0.24-0.537-0.536
				s0.24-0.537,0.537-0.537h36.085c0.296,0,0.536,0.241,0.536,0.537s-0.24,0.536-0.536,0.536H60.023z"/>
		</g>
	</g>
	<g>
		<g>
			<path style="fill-rule:evenodd;clip-rule:evenodd;fill:#FFFFFF;" d="M101.292,343.399c4.419,2.606,7.509,7.1,7.509,12.321v62.013
				l-0.05,0.163c-1.367,4.435-13.09,5.03-16.777,5.066c-3.912,0.041-15.418-0.324-16.877-5.066l-0.05-0.163v-62.013
				c0-5.078,2.924-9.48,7.169-12.116c0.333-0.207,2.363-1.336,2.526-1.608c0.078-0.131,0.081-0.491,0.081-0.636v-14.456l0.05-0.163
				c0.698-2.266,5.177-2.438,7.077-2.418c1.815,0.019,6.361,0.263,7.024,2.419l0.05,0.162v14.21c0,0.159-0.008,0.822,0.057,0.962
				C99.215,342.263,101.032,343.245,101.292,343.399z"/>
			<path style="fill-rule:evenodd;clip-rule:evenodd;fill:#D67C1C;" d="M96.459,338.919c-0.848-0.584-3.491-0.769-4.53-0.78
				c-0.97-0.01-3.798,0.125-4.541,0.744c0,1.249,0,2.164,0,3.412c0,3.478-9.439,4.675-9.439,13.113v60.601
				c1.193,2.842,11.186,3.244,14.015,3.215c2.644-0.027,12.776-0.674,13.934-3.22v-60.596c0-9.994-9.438-9.764-9.438-13.044V338.919
				z"/>
			<path style="fill-rule:evenodd;clip-rule:evenodd;fill:#B04C19;" d="M91.923,339.672c2.499,0,4.536-0.367,4.536-0.818
				c0-0.452-2.038-0.819-4.536-0.819c-2.498,0-4.536,0.367-4.536,0.819C87.388,339.305,89.425,339.672,91.923,339.672z"/>
			<path style="fill-rule:evenodd;clip-rule:evenodd;fill:#FFFFFF;" d="M85.759,344.402c-0.17-0.1-0.229-0.317-0.13-0.487
				c0.099-0.171,0.317-0.23,0.488-0.13c1.106,0.64,3.293,1.168,5.779,1.201c1.979,0.027,4.137-0.262,6.077-1.057
				c0.182-0.075,0.391,0.012,0.465,0.193c0.074,0.183-0.013,0.391-0.195,0.466c-2.038,0.835-4.293,1.138-6.356,1.109
				C89.277,345.664,86.955,345.094,85.759,344.402z"/>
			<path style="fill-rule:evenodd;clip-rule:evenodd;fill:#E3F0F5;" d="M91.924,323.279c11.681,0,10.924,6.024,0,6.024
				C80.999,329.304,80.243,323.279,91.924,323.279z"/>
			<path style="fill-rule:evenodd;clip-rule:evenodd;fill:#662E32;" d="M96.899,325.698c-0.087,0.489-2.228,0.898-4.975,0.898
				c-2.748,0-4.889-0.408-4.975-0.898l-1.457-8.25c-0.112-0.634,2.879-1.16,6.432-1.16c3.552,0,6.543,0.527,6.432,1.16
				L96.899,325.698z"/>
			<path style="fill-rule:evenodd;clip-rule:evenodd;fill:#FFFFFF;" d="M85.759,325.655c-0.17-0.099-0.229-0.317-0.13-0.488
				c0.099-0.17,0.317-0.227,0.488-0.13c1.106,0.641,3.293,1.168,5.779,1.202c1.979,0.027,4.137-0.262,6.077-1.058
				c0.182-0.074,0.391,0.013,0.465,0.194c0.074,0.183-0.013,0.391-0.195,0.466c-2.038,0.835-4.292,1.138-6.356,1.109
				C89.277,326.917,86.955,326.347,85.759,325.655z"/>
			<path style="fill-rule:evenodd;clip-rule:evenodd;fill:#934A3B;" d="M91.923,318.609c3.543,0,6.432-0.522,6.432-1.161
				c0-0.64-2.889-1.16-6.432-1.16c-3.542,0-6.432,0.521-6.432,1.16C85.492,318.088,88.381,318.609,91.923,318.609z"/>
		</g>
		<path style="fill-rule:evenodd;clip-rule:evenodd;fill:#B04C19;" d="M79.487,380.727c-0.557-1.047-1.066-2.208-1.538-3.486v3.486
			v17.786v15.914v1.582c0.042,0.1,0.094,0.196,0.156,0.29c1.002,1.496,4.589,2.251,7.957,2.615c0.347,0.037,0.691,0.07,1.031,0.1
			c2.041,0.178,3.888,0.22,4.87,0.209c2.643-0.027,12.776-0.674,13.934-3.22v-2.409v-25.94c-2.432,0.225-5.235,0.547-8.49,0.821
			c-4.221,0.356-7.584,0.11-10.314-0.845c-0.354-0.124-0.698-0.259-1.031-0.407C83.245,385.973,81.151,383.853,79.487,380.727z"/>
		<path style="fill-rule:evenodd;clip-rule:evenodd;fill:#B04C19;" d="M87.219,381.802c0.018,0.552,0.128,1.529,0.676,1.712
			c0.772,0.256,1.898,0.145,2.203-0.771c0.306-0.915-0.633-1.8-1.009-1.919C88.623,380.677,87.19,380.942,87.219,381.802z"/>
		<path style="fill-rule:evenodd;clip-rule:evenodd;fill:#B04C19;" d="M93.231,374.278c1.237-0.523,3.511-1.292,4.469-0.366
			c1.347,1.304,2.244,3.699,0.533,5.248c-1.71,1.549-4.617,0.543-5.262-0.1C92.173,378.266,91.305,375.094,93.231,374.278z"/>
		<path style="fill-rule:evenodd;clip-rule:evenodd;fill:#B04C19;" d="M97.956,383.195c0.027,0.817,0.19,2.267,1,2.535
			c1.141,0.378,2.808,0.213,3.261-1.141c0.453-1.354-0.938-2.664-1.494-2.84C100.033,381.532,97.915,381.925,97.956,383.195z"/>
	</g>
	<g>
		<path style="fill-rule:evenodd;clip-rule:evenodd;fill:#FFFFFF;" d="M114.543,418.533c-4.823-2.358-9.234-38.934-1.352-42.339
			c3.027-1.308,5.627-2.126,5.627-4.057c0-2.76-0.553-5.798-0.553-5.798h29.241c0,0-0.552,3.038-0.552,5.798
			c0,1.931,2.601,2.749,5.627,4.057c7.882,3.405,3.473,39.98-1.352,42.339C145.243,422.923,120.899,422.938,114.543,418.533z"/>
		<path style="fill-rule:evenodd;clip-rule:evenodd;fill:#497D61;" d="M112.022,381.021c-0.384,1.211-0.619,2.47-0.729,3.171
			c-0.676,4.282-0.599,9.055-0.286,13.372c0.312,4.307,0.912,8.796,1.943,12.993c0.369,1.501,0.813,3.074,1.421,4.496
			c0.167,0.387,0.688,1.506,1.042,1.775l0.102,0.05l0.119,0.083c3.513,2.434,12.946,2.944,17.149,2.956
			c3.527,0.011,7.181-0.196,10.662-0.782c1.907-0.32,5.071-0.983,6.655-2.145l0.138-0.102l0.113-0.052
			c0.354-0.253,0.885-1.393,1.053-1.784c0.609-1.422,1.053-2.995,1.421-4.496c1.031-4.197,1.63-8.687,1.943-12.993
			c0.313-4.317,0.391-9.09-0.286-13.372c-0.11-0.701-0.345-1.96-0.73-3.171c-0.599,1.083-9.711,1.943-20.865,1.943
			C121.733,382.964,112.622,382.103,112.022,381.021z"/>
		<g>
			<path style="fill-rule:evenodd;clip-rule:evenodd;fill:#662E32;" d="M149.31,368.756c-0.082,0.762-7.353,2.052-16.423,2.052
				c-9.071,0-16.301-0.925-16.423-2.052l-0.468-4.286c-0.127-1.159,7.562-2.111,16.891-2.111c9.329,0,16.979,1.311,16.891,2.111
				L149.31,368.756z"/>
			<path style="fill-rule:evenodd;clip-rule:evenodd;fill:#934A3B;" d="M132.887,366.581c9.304,0,16.891-0.948,16.891-2.111
				c0-1.162-7.587-2.111-16.891-2.111s-16.891,0.949-16.891,2.111C115.996,365.633,123.583,366.581,132.887,366.581z"/>
		</g>
		<path style="fill-rule:evenodd;clip-rule:evenodd;fill:#68738D;" d="M119.363,373.956c-0.183-0.073-0.271-0.281-0.198-0.464
			c0.073-0.183,0.282-0.271,0.464-0.198c2.601,1.046,7.923,1.569,13.257,1.569c5.335,0,10.658-0.523,13.258-1.569
			c0.183-0.073,0.391,0.016,0.464,0.198c0.073,0.183-0.016,0.391-0.198,0.464c-2.688,1.082-8.112,1.623-13.524,1.623
			C127.476,375.579,122.052,375.038,119.363,373.956z"/>
		<path style="fill-rule:evenodd;clip-rule:evenodd;fill:#679874;" d="M132.886,383.09c11.491,0,20.862-0.923,20.862-2.054
			c0-1.132-9.371-2.054-20.862-2.054c-11.49,0-20.861,0.922-20.861,2.054C112.025,382.167,121.396,383.09,132.886,383.09z"/>
		<path style="fill-rule:evenodd;clip-rule:evenodd;fill:#325748;" d="M131.581,405.618c-13.1-1.572-9.925-9.706-20.721-10.484
			c0.039,0.821,0.089,1.633,0.146,2.43c0.313,4.307,0.913,8.796,1.943,12.994c0.247,1.001,0.526,2.036,0.867,3.037
			c0.169,0.497,0.353,0.986,0.555,1.458c0.167,0.387,0.688,1.506,1.042,1.775l0.102,0.05l0.119,0.083
			c3.513,2.434,12.946,2.944,17.149,2.956c3.527,0.011,7.181-0.196,10.662-0.782c1.153-0.193,2.767-0.513,4.212-0.991
			c0.944-0.313,1.817-0.694,2.442-1.153l0.138-0.102l0.113-0.052c0.354-0.252,0.885-1.393,1.053-1.784
			c0.202-0.472,0.386-0.961,0.555-1.458c0.34-1.001,0.621-2.036,0.866-3.037c1.031-4.198,1.631-8.688,1.943-12.994
			c0.115-1.593,0.199-3.247,0.224-4.917c-2.646,1.178-5.011,3.084-7.334,5.081C142.831,401.874,138.186,406.411,131.581,405.618z"/>
		<path style="fill-rule:evenodd;clip-rule:evenodd;fill:#325748;" d="M131.732,389.622c-0.412,0.137-1.125,0.438-1.139,0.892
			c-0.021,0.639,0.313,1.462,1.071,1.488c0.758,0.026,1.215-0.878,1.221-1.188C132.893,390.43,132.373,389.41,131.732,389.622z"/>
		<path style="fill-rule:evenodd;clip-rule:evenodd;fill:#325748;" d="M138.741,392.478c0.671,0.815,1.758,2.357,1.273,3.285
			c-0.682,1.306-2.288,2.516-3.837,1.571c-1.548-0.943-1.438-3.358-1.098-3.987C135.502,392.568,137.698,391.208,138.741,392.478z"
			/>
		<path style="fill-rule:evenodd;clip-rule:evenodd;fill:#325748;" d="M133.074,398.024c-0.61,0.202-1.665,0.648-1.687,1.319
			c-0.031,0.944,0.465,2.163,1.586,2.202c1.122,0.039,1.799-1.299,1.807-1.758C134.79,399.22,134.023,397.711,133.074,398.024z"/>
	</g>
</g>
<g id="TEXTS">
	<g>
		<text transform="matrix(1.1412 0 0 1 326.0001 212.3572)"><tspan x="0" y="0" style="fill:#FFFFFF; font-family:'OpenSans-Extrabold'; font-size:9.1571px;">I</tspan><tspan x="3.188" y="0" style="fill:#FFFFFF; font-family:'OpenSans-Extrabold'; font-size:9.1571px;">NTERNATIONAL</tspan></text>
		<text transform="matrix(1.1412 0 0 1 324.5275 241.6189)"><tspan x="0" y="0" style="fill:#FFFFFF; font-family:'Righteous-Regular'; font-size:28.4632px; letter-spacing:1.753;">C</tspan><tspan x="20.056" y="0" style="fill:#FFFFFF; font-family:'Righteous-Regular'; font-size:28.4632px; letter-spacing:1.753;">HE</tspan><tspan x="59.819" y="0" style="fill:#FFFFFF; font-family:'Righteous-Regular'; font-size:28.4632px;">F</tspan></text>
		<text transform="matrix(1.1412 0 0 1 336.2394 269.8621)"><tspan x="0" y="0" style="fill:#FFFFFF; font-family:'Righteous-Regular'; font-size:28.4632px; letter-spacing:1.753;">D</tspan><tspan x="20.445" y="0" style="fill:#FFFFFF; font-family:'Righteous-Regular'; font-size:28.4632px; letter-spacing:1.753;">A</tspan><tspan x="41.459" y="0" style="fill:#FFFFFF; font-family:'Righteous-Regular'; font-size:28.4632px;">Y</tspan></text>
	</g>
</g>
</svg>
