<?xml version="1.0" encoding="utf-8"?>
<!-- Generator: Adobe Illustrator 27.5.0, SVG Export Plug-In . SVG Version: 6.00 Build 0)  -->
<svg version="1.1" xmlns="http://www.w3.org/2000/svg" xmlns:xlink="http://www.w3.org/1999/xlink" x="0px" y="0px"
	 viewBox="0 0 500 500" style="enable-background:new 0 0 500 500;" xml:space="preserve">
<g id="BACKGROUND">
	<rect style="fill:#E8EAEC;" width="500" height="500"/>
</g>
<g id="OBJECTS">
	<path style="fill:#C9CACC;" d="M8.385,444.702c3.311-4.162,182.35-8.545,253.168-9.996c70.818-1.45,238.973,4.646,230.106,14.011
		s-247.862,8.845-336.748,7.284C66.023,454.44,2.473,452.132,8.385,444.702z"/>
	<g>
		<g>
			<path style="fill:#F29076;" d="M355.878,398.722l5.732,33.245c0,0-6.766,1.992-12.221-0.784l-6.757-32.461H355.878z"/>
			<path style="fill:#FFFFFF;" d="M365.197,434.493c0,0,1.432,5.306,1.668,6.08c0.237,0.774-0.832,1.769-1.639,1.879
				c-0.808,0.111-29.039,0-31.416,0c-2.377,0-6.337-1.99-6.742-2.542c-0.405-0.553-0.172-5.195-0.172-5.195L365.197,434.493z"/>
			<path style="fill:#333243;" d="M360.6,423.218c0,0-3.095,0.221-3.13,1.216c-0.035,0.995,0.498,4.09-1.446,4.201
				c-1.944,0.11-6.78-2.764-8.586-3.648c-1.806-0.884-6.025,5.625-9.963,5.748c-7.092,0.221-9.937,1.105-10.578,3.979
				c0,0,9.321,2.321,18.072,1.327c8.751-0.995,16.077-1.658,20.23-1.548C365.197,434.493,364.218,429.63,360.6,423.218z"/>
			<path style="fill:none;stroke:#0D0000;stroke-width:0.75;stroke-miterlimit:10;" d="M342.255,428.328
				c0,0,2.189,3.717,0.463,4.331c-1.725,0.614-8.056,0.791-10.622-1.387"/>
			<path style="fill:none;stroke:#0D0000;stroke-width:0.75;stroke-miterlimit:10;" d="M356.846,428.328
				c0,0,1.635,2.236,3.141,1.942c1.506-0.294,2.531,0.343,2.924,1.028c0.393,0.686,1.617,0.784,1.617,0.784"/>
			
				<line style="fill:none;stroke:#0D0000;stroke-width:0.75;stroke-miterlimit:10;" x1="344.959" y1="425.282" x2="347.955" y2="427.436"/>
			
				<line style="fill:none;stroke:#0D0000;stroke-width:0.75;stroke-miterlimit:10;" x1="344.091" y1="426.359" x2="346.669" y2="429.087"/>
			
				<line style="fill:none;stroke:#0D0000;stroke-width:0.75;stroke-miterlimit:10;" x1="342.901" y1="426.8" x2="345.098" y2="429.855"/>
			<path style="fill:none;stroke:#0D0000;stroke-width:0.75;stroke-miterlimit:10;" d="M365.589,435.951
				c0,0-7.328-0.237-10.83,0.338c-3.502,0.575-15.963,4.545-27.904-0.387"/>
		</g>
		<g>
			<path style="fill:#F29076;" d="M288.73,398.722l5.732,33.245c0,0-6.765,1.992-12.221-0.784l-6.757-32.461H288.73z"/>
			<path style="fill:#FFFFFF;" d="M298.05,434.493c0,0,1.431,5.306,1.668,6.08c0.237,0.774-0.832,1.769-1.64,1.879
				c-0.808,0.111-29.039,0-31.416,0c-2.377,0-6.337-1.99-6.742-2.542c-0.405-0.553-0.172-5.195-0.172-5.195L298.05,434.493z"/>
			<path style="fill:#333243;" d="M293.452,423.218c0,0-3.095,0.221-3.13,1.216c-0.035,0.995,0.498,4.09-1.446,4.201
				c-1.944,0.11-6.78-2.764-8.586-3.648c-1.806-0.884-6.025,5.625-9.963,5.748c-7.092,0.221-9.937,1.105-10.578,3.979
				c0,0,9.321,2.321,18.072,1.327c8.751-0.995,16.077-1.658,20.23-1.548C298.05,434.493,297.07,429.63,293.452,423.218z"/>
			<path style="fill:none;stroke:#0D0000;stroke-width:0.75;stroke-miterlimit:10;" d="M275.107,428.328
				c0,0,2.189,3.717,0.463,4.331c-1.725,0.614-8.056,0.791-10.622-1.387"/>
			<path style="fill:none;stroke:#0D0000;stroke-width:0.75;stroke-miterlimit:10;" d="M289.699,428.328
				c0,0,1.635,2.236,3.141,1.942c1.506-0.294,2.531,0.343,2.924,1.028c0.393,0.686,1.617,0.784,1.617,0.784"/>
			
				<line style="fill:none;stroke:#0D0000;stroke-width:0.75;stroke-miterlimit:10;" x1="277.811" y1="425.282" x2="280.808" y2="427.436"/>
			
				<line style="fill:none;stroke:#0D0000;stroke-width:0.75;stroke-miterlimit:10;" x1="276.943" y1="426.359" x2="279.521" y2="429.087"/>
			
				<line style="fill:none;stroke:#0D0000;stroke-width:0.75;stroke-miterlimit:10;" x1="275.753" y1="426.8" x2="277.95" y2="429.855"/>
			<path style="fill:none;stroke:#0D0000;stroke-width:0.75;stroke-miterlimit:10;" d="M298.441,435.951
				c0,0-7.328-0.237-10.83,0.338c-3.502,0.575-15.963,4.545-27.904-0.387"/>
		</g>
		<path style="fill:#F29076;" d="M218.976,234.829l50.669-28.896l-2.292-18.198l15.525-4.976c0,0,6.595,27.247,3.495,31.54
			c-2.963,4.103-65.897,28.651-65.897,28.651L218.976,234.829z"/>
		<path style="fill:#FCBC64;" d="M278.674,131.742c0,0-10.761,4.445-13.926,8.138c-3.165,3.692,1.978,52.178,1.978,52.178
			l16.941-1.804L278.674,131.742z"/>
		<path style="fill:none;stroke:#0D0000;stroke-width:0.75;stroke-miterlimit:10;" d="M264.934,150.277
			c2.552,0.659,5.013,1.667,7.295,2.985c0.422,0.244,0.873,0.542,1.004,1.012c0.246,0.884-0.749,1.581-1.596,1.933
			c-0.848,0.352-1.876,0.932-1.764,1.843c0.071,0.58,0.6,0.98,1.092,1.294c3.674,2.343,8.158,4.137,10.003,8.084"/>
		<polygon style="fill:#8F7D71;" points="288.034,185.204 269.031,186.09 268.121,190.165 266.074,186.673 263.863,187.094 
			266.182,194.486 289.604,191.728 		"/>
		<path style="fill:#FCBC64;" d="M306.958,124.705c0,0,16.512,1.913,21.538,4.558c4.532,2.384,4.723,78.74,4.723,78.74
			l-50.974-4.449c0,0-5.734-67.708-5.988-69.3c-0.254-1.591,16.425-9.772,16.425-9.772L306.958,124.705z"/>
		<path style="fill:#FFFFFF;" d="M306.684,122.928c0,0,5.742,5.992,2.291,10.094c-3.328,3.956-9.18-1.28-9.18-1.28
			s-5.292,4.222-8.457,2.442c-3.165-1.78,0.482-8.864,2.961-11.084L306.684,122.928z"/>
		<path style="fill:#4B5A73;" d="M278.861,233.212c0,0-35.718,53.361-35.718,62.349c0,13.008,35.45,119.944,35.45,119.944h17.867
			l-20.975-107.362c2.488-4.794,26.598-37.479,26.598-37.479l41.972,144.842h17.113L333.065,206.93c0,0-13.443,1.216-14.591-7.851
			c-1.147-9.067,3.207-71.953,3.207-71.953l-6.867-1.304l-2.404,32.154h-28.074c0,0-1.132-23.609,0-29.183
			c0,0-8.047,3.448-8.08,5.462c-0.033,2.014-0.033,2.014-0.033,2.014l-0.969,21.707c0,0-8.528,12.972-8.916,15.933
			c-1.055,8.044,9.915,18.148,9.915,18.148S278.962,208.004,278.861,233.212z"/>
		<path style="fill:#566885;" d="M246.823,294.861c0,0,1.547-0.463,4.808,0.012c3.26,0.475,4.286,1.809,4.286,1.809
			s-2.319,4.549-6.401,3.867C247.296,300.178,246.885,295.29,246.823,294.861z"/>
		<path style="fill:#566885;" d="M333.07,317.386c0,0,1.313-0.941,4.55-1.552c3.237-0.611,4.641,0.318,4.641,0.318
			s-0.714,5.056-4.797,5.738C335.247,322.26,333.269,317.771,333.07,317.386z"/>
		
			<line style="fill:none;stroke:#0D0000;stroke-width:0.75;stroke-miterlimit:10;" x1="275.484" y1="308.143" x2="273.311" y2="300.626"/>
		<path style="fill:none;stroke:#0D0000;stroke-width:0.75;stroke-miterlimit:10;" d="M292.832,259.725
			c2.286,4.669,5.625,8.818,9.695,12.051"/>
		<path style="fill:#3D4A5E;" d="M279.716,204.458l30.569-2.425c0,0,0.602,20.422,0.065,21.74
			c-0.537,1.318-13.428,7.544-15.33,8.064c-1.902,0.52-9.541-2.11-11.751-3.209C281.059,227.529,279.716,204.458,279.716,204.458z"
			/>
		<path style="fill:none;stroke:#0D0000;stroke-width:0.75;stroke-miterlimit:10;" d="M279.308,192.397
			c5.491-0.296,10.944,0.903,16.431,1.265c5.487,0.362,11.379-0.249,15.712-3.635"/>
		<path style="fill:#5E2926;" d="M304.641,73.422c-3.491,0-12.207,3.526-18.832,18.009c-5.815,12.711-0.57,24.205,1.08,25.875
			c1.436,1.454,26.899,2.246,30.165-1.229c3.266-3.476,4.036-19.3,0-31.648C315.335,79.173,312.196,73.422,304.641,73.422z"/>
		<path style="fill:#3B1918;" d="M288.099,87.973c0,0-7.799,14.775-4.007,22.359c3.792,7.584,2.487,7.846,11.988,8.438
			c9.501,0.591,16.202-23.3,9.691-28.328C299.26,85.412,294.027,84.391,288.099,87.973z"/>
		<path style="fill:#5E2926;" d="M290.232,119.775c0,0-8.333-0.594-11.344-3.484c-5.724-5.494-7.72-12.637-2.741-25.582
			c3.982-10.353,10.771-18.058,14.566-18.66c1.814-0.288,10.435-0.174,10.378,13.803c0,0-0.284,3.009-9.383,10.641
			C291.708,96.494,284.453,111.337,290.232,119.775z"/>
		<path style="fill:#F29076;" d="M306.684,125.009v-13.798h-12.648v13.798C294.036,125.009,299.814,132.501,306.684,125.009z"/>
		<path style="fill:#0D0000;" d="M294.036,111.211l0.106,3.6c0,0,3.77,12.394,12.542,6.552v-10.152H294.036z"/>
		<path style="fill:#F29076;" d="M300.36,83.557c-6.289,0-13.72,4.145-13.435,14.578c0.286,10.433,5.72,19.669,13.435,19.669
			c7.253,0,13.148-9.235,13.434-19.669C314.08,87.702,306.649,83.557,300.36,83.557z"/>
		<path style="fill:#5E2926;" d="M299.572,77.175c0,0,4.717,6.926,1.22,10.196c-2.525,2.36-13.329,0.811-13.874,9.406
			c0,0-6.581-3.17-4.672-9.208S295.88,76.086,299.572,77.175z"/>
		<g>
			<g>
				<g>
					<g>
						<g>
							<path style="fill:#0D0000;" d="M297.086,99.028c0.003,1.02-0.446,1.848-1.002,1.849c-0.556,0.001-1.009-0.824-1.011-1.844
								c-0.003-1.02,0.446-1.848,1.002-1.849C296.631,97.183,297.084,98.008,297.086,99.028z"/>
						</g>
					</g>
				</g>
			</g>
		</g>
		<path style="fill:#E8724F;" d="M289.003,102.834c-0.056-1.316,5.441-1.477,5.484,0
			C294.531,104.311,289.091,104.879,289.003,102.834z"/>
		<path style="fill:#75332F;" d="M291.92,95.04c-0.341-0.551,1.771-1.612,3.851-1.677c0.938-0.029,2.537,0.795,2.488,0.924
			s-0.229,1.247-0.57,1.247c-0.148,0-1.373-0.81-2.454-0.817C293.828,94.709,292.085,95.307,291.92,95.04z"/>
		<g>
			<g>
				<g>
					<g>
						<g>
							<path style="fill:#0D0000;" d="M303.634,99.028c-0.003,1.02,0.446,1.848,1.002,1.849c0.556,0.001,1.009-0.824,1.012-1.844
								c0.003-1.02-0.446-1.848-1.002-1.849C304.089,97.183,303.637,98.008,303.634,99.028z"/>
						</g>
					</g>
				</g>
			</g>
		</g>
		<path style="fill:#E8724F;" d="M311.717,102.834c0.056-1.316-5.441-1.477-5.485,0C306.189,104.311,311.63,104.879,311.717,102.834
			z"/>
		<path style="fill:#75332F;" d="M308.801,95.04c0.341-0.551-1.771-1.612-3.851-1.677c-0.938-0.029-2.537,0.795-2.488,0.924
			c0.049,0.129,0.229,1.247,0.57,1.247c0.148,0,1.373-0.81,2.454-0.817C306.893,94.709,308.635,95.307,308.801,95.04z"/>
		<path style="fill:none;stroke:#0D0000;stroke-width:0.5;stroke-miterlimit:10;" d="M300.36,98.646c0,0-0.116,4.686-0.397,5.217
			c0,0-2.218,0.031-2.437,0.687c-0.219,0.656,1.762,1.566,2.834,1.501"/>
		<path style="fill:#F29076;" d="M287.609,97.021c0,0-5.024-2.216-5.338,2.438c-0.314,4.654,2.303,6.537,6.28,4.875L287.609,97.021z
			"/>
		<path style="fill:none;stroke:#0D0000;stroke-width:0.5;stroke-miterlimit:10;" d="M283.667,100.459c0,0,0.799-1.306,1.561-1.076
			c0.762,0.23,2.214,1.921,2.722,3.112"/>
		<path style="fill:#F29076;" d="M313.111,97.021c0,0,5.024-2.216,5.338,2.438c0.314,4.654-2.303,6.537-6.28,4.875L313.111,97.021z"
			/>
		<path style="fill:none;stroke:#0D0000;stroke-width:0.5;stroke-miterlimit:10;" d="M317.053,100.459c0,0-0.799-1.306-1.561-1.076
			c-0.762,0.23-2.214,1.921-2.722,3.112"/>
		
			<line style="fill:none;stroke:#0D0000;stroke-width:0.75;stroke-miterlimit:10;" x1="299.796" y1="131.742" x2="298.935" y2="139.879"/>
		<path style="fill:#F29076;" d="M314.034,232.337c0,0-4.88-2.996-6.366-3.919c-1.486-0.923-6.572,5.212-6.396,6.075
			c0.176,0.864,2.457,0.724,2.457,0.724s-0.146,1.581,0.564,1.744c0.71,0.163,1.476-0.296,1.476-0.296s-0.92,1.769-0.095,2.048
			c0.825,0.279,2.378-1.978,2.378-1.978s5.092,7.32,10.423,2.08L314.034,232.337z"/>
		<path style="fill:#F29076;" d="M314.034,232.337l38.416-36.546l-8.794-15.506l13.4-9.285c0,0,14.251,24.141,12.537,29.152
			c-1.638,4.789-51.118,38.663-51.118,38.663L314.034,232.337z"/>
		<path style="fill:#FCBC64;" d="M326.215,128.339c8.95,1.387,11.689,7.321,17.44,16.024c5.752,8.703,17.366,26.506,17.366,26.506
			l-17.403,13.451c0,0-13.04-23.554-18.475-32.637C319.709,142.598,326.215,128.339,326.215,128.339z"/>
		<polygon style="fill:#8F7D71;" points="340.358,178.453 354.946,166.243 358.374,168.626 357.517,164.67 359.429,163.484 
			362.726,170.495 343.618,184.319 		"/>
		
			<line style="fill:none;stroke:#0D0000;stroke-width:0.75;stroke-miterlimit:10;" x1="269.645" y1="205.933" x2="276.255" y2="204.907"/>
		
			<line style="fill:none;stroke:#0D0000;stroke-width:0.75;stroke-miterlimit:10;" x1="352.45" y1="195.791" x2="358.198" y2="194.486"/>
		<path style="fill:none;stroke:#0D0000;stroke-width:0.75;stroke-miterlimit:10;" d="M325.322,141.87
			c-0.064,3.174,0.432,6.357,1.456,9.362c0.572,1.677,1.305,3.293,2.036,4.906c1.227,2.705,2.454,5.41,3.681,8.115"/>
		<path style="fill:none;stroke:#0D0000;stroke-width:0.5;stroke-miterlimit:10;" d="M302.88,110.469
			c-0.708,0.518-1.6,0.737-2.477,0.771c-0.877,0.033-1.75-0.107-2.616-0.246"/>
		<path style="fill:#E08067;" d="M301.496,113.39c0.053-0.453-2.556-0.315-2.396,0.082
			C299.259,113.87,301.434,113.927,301.496,113.39z"/>
		<polygon style="fill:#7086AB;" points="296.459,415.505 294.29,405.216 270.902,406.514 274.067,415.505 		"/>
		<polygon style="fill:#7086AB;" points="361.167,415.505 359.781,405.216 336.865,406.514 338.631,415.505 		"/>
		<g>
			<path style="fill:none;stroke:#DAD5D1;stroke-width:3;stroke-miterlimit:10;" d="M219.725,235.529
				c0,0,17.934-51.062,39.56-53.576c21.626-2.513,51.611,8.359,48.956,48.535c-2.655,40.176-23.833,186.422,11.769,196.453
				s82.02,0,82.02,0"/>
			<polygon style="fill:#333243;" points="218.151,230.488 170.646,437.422 178.675,436.601 225.361,231.904 			"/>
			<polygon style="fill:#333243;" points="121.591,442.949 125.283,434.832 228.14,434.832 226.031,442.949 			"/>
			<path style="fill:#4B5A73;" d="M370.924,427.154c0,0-4.538,0.963-5.335,1.174c-0.797,0.211-0.324,5.288,0,5.815
				c0.324,0.527,6.456,0.923,6.456,0.923S371.385,428.119,370.924,427.154z"/>
			<g>
				<path style="fill:#6B7829;" d="M367.958,422.805c0,0,4.059-17.407,8.915-24.527c4.856-7.121,84.407-15.824,88.245-13.451
					c3.839,2.374,5.966,22.154,5.966,37.978H367.958z"/>
				<path style="fill:#0D0000;" d="M367.958,422.805c0,0,0.296,15.824,4.551,18.198c4.255,2.374,90.774,1.582,95.029,0
					c4.255-1.582,3.546-18.198,3.546-18.198H367.958z"/>
				<ellipse style="fill:#3D4A5E;" cx="458.975" cy="425.662" rx="17.113" ry="17.998"/>
				<ellipse style="fill:#4B5A73;" cx="458.975" cy="425.662" rx="7.886" ry="8.294"/>
				<path style="fill:none;stroke:#0D0000;stroke-width:0.75;stroke-miterlimit:10;" d="M411.942,389.322
					c0,0,3.782,23.592,3.804,33.482"/>
				<polyline style="fill:none;stroke:#0D0000;stroke-width:0.75;stroke-miterlimit:10;" points="428.31,387.118 429.775,392.936 
					454.579,390.027 453.709,384.428 				"/>
			</g>
		</g>
		<path style="fill:#F29076;" d="M220.024,242.034c0.418-0.305,0.764-0.641,0.894-1.073c0.058-0.191,0.1-0.399,0.032-0.587
			c-0.127-0.348-0.535-0.789-0.9-0.85c0.446-0.102,0.806-0.509,0.852-0.964c0.047-0.456-0.209-1.255-0.626-1.445
			c0.558-0.378,0.66-1.276,0.2-1.769c-0.184-0.197-0.429-0.324-0.67-0.444c-1.192-0.59-2.542-1.161-3.864-1.596
			c-0.728-0.24-1.53-0.008-2.018,0.582c-0.841,1.019-0.075,2.72-0.723,3.872c-0.273,0.485-0.806,0.801-1.012,1.318
			c-0.205,0.518-0.033,1.108-0.127,1.656c-0.086,0.499-0.387,0.938-0.485,1.434c-0.098,0.496,0.43,1.725,0.935,1.761
			c1.463,0.104,2.763,0.653,4.23,0.637c0.84-0.009,1.681-0.018,2.521-0.028c0.236-0.003,0.483-0.008,0.69-0.122
			c0.363-0.201,0.483-0.697,0.358-1.093C220.186,242.928,220.363,242.275,220.024,242.034z"/>
	</g>
	<g>
		<path style="fill:#F29076;" d="M65.913,390.678c0,0-7.479,26.365-8.248,31.672H42.001l7.59-31.672H65.913z"/>
		<g>
			<path style="fill:#333243;" d="M71.59,438.766c0,0,3.386-5.897,6.213-5.757c0,0-11.7-3.089-13.801-4.493
				s-5.031-7.863-5.939-8.425c-0.908-0.562-15.664,0-15.664,0s-2.364,2.949-0.643,3.651c0,0-4.004,9.408-5.161,15.024H71.59z"/>
			<path style="fill:#FFFFFF;" d="M77.803,433.009c0,0,10.078,1.825,9.721,5.757c0,0-0.233,3.229-2.226,4.072c0,0-46.4,0-48.581,0
				c0,0-0.683-1.787-0.122-4.072H71.59C71.59,438.766,73.847,433.571,77.803,433.009z"/>
			<path style="fill:none;stroke:#0D0000;stroke-width:0.75;stroke-miterlimit:10;" d="M54.235,419.845c0,0-0.17,11.76,6.314,13.866
				c3.264,1.06,8.783,1.685,7.854,5.055"/>
			
				<line style="fill:none;stroke:#0D0000;stroke-width:0.75;stroke-miterlimit:10;" x1="86.965" y1="440.989" x2="36.385" y2="440.989"/>
			<path style="fill:none;stroke:#0D0000;stroke-width:0.75;stroke-miterlimit:10;" d="M71.59,438.766c0,0,13.536,0.281,15.934,0"/>
			<path style="fill:none;stroke:#0D0000;stroke-width:0.75;stroke-miterlimit:10;" d="M64.797,438.766c0,0-4.863-2.387-8.084-2.668
				c-3.221-0.281-5.014,2.598-5.014,2.598"/>
			
				<line style="fill:none;stroke:#0D0000;stroke-width:0.75;stroke-miterlimit:10;" x1="61.163" y1="423.918" x2="56.92" y2="426.585"/>
			
				<line style="fill:none;stroke:#0D0000;stroke-width:0.75;stroke-miterlimit:10;" x1="62.238" y1="425.673" x2="56.968" y2="424.409"/>
			
				<line style="fill:none;stroke:#0D0000;stroke-width:0.75;stroke-miterlimit:10;" x1="62.411" y1="426.327" x2="59.035" y2="429.748"/>
			
				<line style="fill:none;stroke:#0D0000;stroke-width:0.75;stroke-miterlimit:10;" x1="64.067" y1="427.704" x2="58.366" y2="427.728"/>
			
				<line style="fill:none;stroke:#0D0000;stroke-width:0.75;stroke-miterlimit:10;" x1="65.385" y1="428.222" x2="63.009" y2="432.107"/>
			
				<line style="fill:none;stroke:#0D0000;stroke-width:0.75;stroke-miterlimit:10;" x1="67.461" y1="429.17" x2="61.734" y2="430.358"/>
			<path style="fill:none;stroke:#0D0000;stroke-width:0.75;stroke-miterlimit:10;" d="M41.756,423.742
				c0,0,8.826,0.026,12.747-0.215"/>
		</g>
		<path style="fill:#F29076;" d="M116.446,390.678c0,0-5.606,26.365-5.998,31.672H94.784l5.34-31.672H116.446z"/>
		<g>
			<path style="fill:#333243;" d="M125.54,438.766c0,0,2.967-5.897,5.804-5.757c0,0-11.92-3.089-14.12-4.493
				c-2.201-1.404-5.59-7.863-6.537-8.425c-0.947-0.562-15.664,0-15.664,0s-2.155,2.949-0.383,3.651c0,0-3.336,9.408-4.093,15.024
				H125.54z"/>
			<path style="fill:#FFFFFF;" d="M131.344,433.009c0,0,10.207,1.825,10.13,5.757c0,0-0.004,3.229-1.937,4.072c0,0-46.4,0-48.581,0
				c0,0-0.81-1.787-0.411-4.072h34.995C125.54,438.766,127.427,433.571,131.344,433.009z"/>
			<path style="fill:none;stroke:#0D0000;stroke-width:0.75;stroke-miterlimit:10;" d="M106.841,419.845
				c0,0,0.666,11.76,7.299,13.866c3.339,1.06,8.902,1.685,8.213,5.055"/>
			
				<line style="fill:none;stroke:#0D0000;stroke-width:0.75;stroke-miterlimit:10;" x1="141.073" y1="440.989" x2="90.492" y2="440.989"/>
			<path style="fill:none;stroke:#0D0000;stroke-width:0.75;stroke-miterlimit:10;" d="M125.54,438.766c0,0,13.556,0.281,15.934,0"
				/>
			<path style="fill:none;stroke:#0D0000;stroke-width:0.75;stroke-miterlimit:10;" d="M118.747,438.766
				c0,0-5.033-2.387-8.274-2.668c-3.241-0.281-4.829,2.597-4.829,2.597"/>
			
				<line style="fill:none;stroke:#0D0000;stroke-width:0.75;stroke-miterlimit:10;" x1="114.058" y1="423.917" x2="110.004" y2="426.585"/>
			
				<line style="fill:none;stroke:#0D0000;stroke-width:0.75;stroke-miterlimit:10;" x1="115.257" y1="425.673" x2="109.897" y2="424.409"/>
			
				<line style="fill:none;stroke:#0D0000;stroke-width:0.75;stroke-miterlimit:10;" x1="115.477" y1="426.327" x2="112.344" y2="429.748"/>
			
				<line style="fill:none;stroke:#0D0000;stroke-width:0.75;stroke-miterlimit:10;" x1="117.231" y1="427.704" x2="111.531" y2="427.728"/>
			
				<line style="fill:none;stroke:#0D0000;stroke-width:0.75;stroke-miterlimit:10;" x1="118.585" y1="428.222" x2="116.486" y2="432.107"/>
			
				<line style="fill:none;stroke:#0D0000;stroke-width:0.75;stroke-miterlimit:10;" x1="120.728" y1="429.17" x2="115.087" y2="430.358"/>
			<path style="fill:none;stroke:#0D0000;stroke-width:0.75;stroke-miterlimit:10;" d="M94.638,423.742
				c0,0,8.828,0.026,12.731-0.215"/>
		</g>
		<path style="fill:#F29076;" d="M131.69,157.418l6.585,47.391c0,0-15.406-6.773-19.105-14.818
			c-3.699-8.045-5.934-32.572-5.934-32.572H131.69z"/>
		<path style="fill:#F29076;" d="M32.954,189.219l6.692-31.801l17.451,2.521C57.097,159.939,55.009,186.866,32.954,189.219z"/>
		<path style="fill:#FCBC64;" d="M58.782,113.217c-3.971,1.475-13.861,6.222-14.521,9.519c-0.74,3.701-7.58,43.357-7.58,43.357
			h20.768C57.449,166.094,63.334,111.526,58.782,113.217z"/>
		<polygon style="fill:#8F7D71;" points="56.569,173.368 57.097,163.692 33.393,163.692 33.393,173.368 		"/>
		<path style="fill:#FCBC64;" d="M113.413,118.613c3.667,1.429,14.217,7.748,14.826,10.941c0.683,3.584,7,41.995,7,41.995h-19.177
			C116.061,171.549,109.209,116.975,113.413,118.613z"/>
		<path style="fill:none;stroke:#0D0000;stroke-width:0.75;stroke-miterlimit:10;" d="M123.495,150.597
			c0.296-1.343,1.661-2.363,3.032-2.266c-0.107,2.514-1.773,4.685-3.588,6.428c-1.815,1.743-3.884,3.287-5.217,5.421
			c-1.694,2.712-1.979,6.254-0.74,9.202"/>
		<polygon style="fill:#8F7D71;" points="116.874,178.595 116.386,169.223 138.275,169.223 138.275,178.595 		"/>
		<path style="fill:#FCBC64;" d="M49.987,249.219h67.865c0,0,1.23-119.457,0.802-124.719c-0.427-5.262-22.008-15.57-22.008-15.57
			l-15.028-0.959c0,0-21.015,4.026-23.579,6.953C61.016,111.526,50.813,229.445,49.987,249.219z"/>
		<path style="fill:#4B5A73;" d="M52.541,211.922c6.261,6.647,15.928-0.787,16.679-7.869c0.751-7.082,0.994-64.178-2.387-71.453
			c-3.382-7.275-9.345-18.073-9.345-18.073c0.534-2.098,7.711-3.237,7.711-3.237s9.337,16.192,10.429,22.684
			c1.092,6.492,1.188,31.277,1.188,31.277h33.605l-0.576-49.193c7.988,3.576,8.258,8.045,8.258,8.045l1.168,117.124
			c0,0,13.359,48.324,14.948,56.936c1.589,8.612-17.439,117.341-17.439,117.341H93.784l12.422-102.509L85.39,259.36
			c0,0,2.09,57.131,2.858,61.77c0.949,5.733-24.413,94.375-24.413,94.375H42.531l16.588-90.069c0,0-5.306-41.596-10.585-58.979
			C44.012,251.572,52.541,211.922,52.541,211.922z"/>
		<path style="fill:#3D4A5E;" d="M110.371,201.884l-34.552-0.077c0,0,1.089,21.657,1.806,23.007
			c0.717,1.35,15.737,6.889,17.919,7.285c2.182,0.396,10.536-3.009,12.924-4.352C110.857,226.404,110.371,201.884,110.371,201.884z"
			/>
		<path style="fill:#415673;" d="M110.708,217.293"/>
		<polygon style="fill:#333243;" points="59.502,89.675 182.28,416.718 179.116,418.517 54.105,92.96 		"/>
		<path style="fill:#F29076;" d="M80.93,156.058c0,0,1.112,5.613-6.167,7.634l-2.513-6.274c0,0,1.888-4.289,3.515-8.102
			c0.78-1.829,8.87-2.673,9.319-1.854c0.449,0.819-1.094,2.688-1.094,2.688s1.121,1.091,0.775,1.832
			c-0.346,0.741-1.132,1.051-1.132,1.051s2.222,0.308,2.318,1.295c0.099,1.013-1.128,2.793-1.128,2.793l-0.694-1.849L80.93,156.058z
			"/>
		<path style="fill:#F29076;" d="M102.601,176.544c0,0-5.468-5.342-6.938-6.346c-1.183-0.808-6.01-0.317-6.01-0.317l0.929,2.481
			c0,0-3.585,1.011-3.853,1.231c-0.268,0.22,1.1,1.347,1.1,1.347s-0.08,1.416,0.69,1.761c0.77,0.345,0.77,0.345,0.77,0.345
			s-0.192,1.003,0.25,1.276c0.735,0.453,3.1,3.638,7.457,3.631L102.601,176.544z"/>
		<path style="fill:#F29076;" d="M102.601,176.544c0,0,16.573,10.62,31.712,23.001c8.781,7.181,5.247,22.064,0,22.068
			c-5.813,0.005-37.316-39.661-37.316-39.661L102.601,176.544z"/>
		<path style="fill:#75332F;" d="M110.627,80.367c0,0,2.897-13.678,2.585-17.101c-0.347-3.813-3.537-4.265-6.006-3.539
			c0,0,3.29-4.109-7.151-9.103c-8.857-4.236-16.259,6.485-16.259,6.485s-7.416,0.894-7.616,5.527
			c-0.131,3.027,0.313,17.813,0.313,17.813c-0.114,5.07,0.349,12.181,4.549,13.031C85.241,94.328,106.786,89.86,110.627,80.367z"/>
		<path style="fill:#E08067;" d="M105.452,78.204c0,0,5.808-3.497,6.841,1.15c0.879,3.954-4.499,5.608-7.071,2.953L105.452,78.204z"
			/>
		<path style="fill:#F29076;" d="M98.021,82.386l-1.082,26.626c0,0-3.979,4.413-9.014,4.198c-2.661-0.114-8.236-0.179-8.953-4.198
			l1.838-27.588L98.021,82.386z"/>
		<path style="fill:#0D0000;" d="M98.021,82.386L83.594,81.58c0,0-2.775,27.872,13.345,27.432L98.021,82.386z"/>
		<path style="fill:#F29076;" d="M81.295,71.255c0.575-10.277,13.824-8.825,13.824-8.825s13.328,0.034,12.754,10.311
			c-0.179,3.194-0.585,9.912-0.654,11.694c-0.17,4.413-4.265,16.327-14.01,15.782c-9.745-0.545-12.035-10.532-12.567-17.268
			C80.501,81.171,81.116,74.449,81.295,71.255z"/>
		<path style="fill:#E88064;" d="M99.478,86.317c-0.033,0.598,1.426,1.167,3.26,1.269c1.834,0.103,3.348-0.299,3.381-0.898
			c0.033-0.599-1.426-1.167-3.26-1.269C101.026,85.316,99.512,85.718,99.478,86.317z"/>
		<path style="fill:#E88064;" d="M83.76,85.438c-0.033,0.599,1.426,1.167,3.26,1.269c1.834,0.103,3.348-0.299,3.381-0.898
			c0.033-0.599-1.426-1.167-3.26-1.269C85.307,84.437,83.793,84.839,83.76,85.438z"/>
		<g>
			<g>
				<g>
					<g>
						<g>
							<path style="fill:#0D0000;" d="M91.773,79.912c-0.043,0.973-0.508,1.743-1.038,1.72c-0.531-0.023-0.926-0.831-0.884-1.804
								c0.043-0.973,0.508-1.743,1.038-1.72C91.42,78.13,91.816,78.938,91.773,79.912z"/>
						</g>
					</g>
				</g>
			</g>
		</g>
		<path style="fill:#75332F;" d="M86.726,75.749c-0.232-0.718,1.246-1.909,1.695-1.989c0.449-0.079,3.593,0.133,4.171,0.461
			c0.578,0.327,0.87,1.243,0.87,1.243C93.445,75.832,86.874,76.204,86.726,75.749z"/>
		<g>
			<g>
				<g>
					<g>
						<g>
							<path style="fill:#0D0000;" d="M98.75,80.236c-0.048,0.973,0.344,1.783,0.874,1.809c0.531,0.026,0.999-0.742,1.047-1.715
								c0.048-0.973-0.344-1.783-0.874-1.809C99.266,78.495,98.798,79.263,98.75,80.236z"/>
						</g>
					</g>
				</g>
			</g>
		</g>
		<path style="fill:#75332F;" d="M104.161,76.559c0.298-0.693-1.063-2.017-1.503-2.137s-3.59-0.2-4.196,0.072
			c-0.606,0.273-0.981,1.157-0.981,1.157C97.464,76.019,103.972,76.999,104.161,76.559z"/>
		<path style="fill:none;stroke:#0D0000;stroke-width:0.5;stroke-miterlimit:10;" d="M92.069,91.654
			c0.718,0.505,1.613,0.707,2.491,0.724c0.877,0.017,1.748-0.139,2.611-0.295"/>
		<path style="fill:#E08067;" d="M93.507,94.548c-0.061-0.452,2.55-0.363,2.397,0.037C95.752,94.986,93.58,95.084,93.507,94.548z"/>
		<path style="fill:none;stroke:#0D0000;stroke-width:0.5;stroke-miterlimit:10;" d="M94.924,82.888c0,0,1.716,2.849,1.969,3.284
			s-1.254,0.94-2.05,0.973"/>
		<path style="fill:#F29076;" d="M81.9,76.687c0,0-5.382-4.123-6.927,0.38c-1.314,3.832,3.846,6.074,6.697,3.723L81.9,76.687z"/>
		<path style="fill:none;stroke:#0D0000;stroke-width:0.5;stroke-miterlimit:10;" d="M76.927,77.59c0,0,0.272-0.767,1.334-0.778
			c1.062-0.012,1.799,1.665,2.122,3.104"/>
		<path style="fill:#75332F;" d="M109.196,74.323c-10.375-1.217-16.821-5.172-20.395-11.264c-1.053,5.074-6.064,9.127-11.239,8.859
			c-0.221-0.011-0.457-0.036-0.625-0.179c-0.316-0.269-0.219-0.772-0.091-1.168c1.51-4.678,3.627-9.559,7.82-12.124
			c4.206-2.573,9.61-2.216,14.327-0.783c1.54,0.468,3.057,1.044,4.436,1.872C107.935,62.243,110.419,67.598,109.196,74.323z"/>
		<path style="fill:#75332F;" d="M79.841,67.911c0,0-0.37,10.054,1.703,9.51c4.84-1.271,1.083-10.531,1.083-10.531L79.841,67.911z"
			/>
		<path style="fill:#DCE2F0;" d="M78.972,109.012c0,0,8.873,5.252,17.967,0l-9.266,19.202L78.972,109.012z"/>
		<polygon style="fill:#FFFFFF;" points="79.31,102.5 71.558,109.284 77.279,123.324 80.966,119.614 84.366,120.915 78.972,109.012 
					"/>
		<polygon style="fill:#FFFFFF;" points="97.228,101.91 103.602,108.627 98.632,123.324 94.945,119.614 91.201,120.904 
			96.939,109.012 		"/>
		<path style="fill:#F29076;" d="M72.25,157.418c0,0-36.143,27.097-39.297,31.801c-3.154,4.704-4.194,11.253,0.22,13.481
			c11.852,5.982,33.899-20.744,41.59-39.008L72.25,157.418z"/>
		<path style="fill:none;stroke:#0D0000;stroke-width:0.75;stroke-miterlimit:10;" d="M51.471,173.368
			c0,0-10.295,8.178-12.888,10.454"/>
		
			<line style="fill:none;stroke:#0D0000;stroke-width:0.75;stroke-miterlimit:10;" x1="118.732" y1="187.22" x2="131.044" y2="196.894"/>
		<polygon style="fill:#7086AB;" points="121.404,415.505 123.382,403.879 95.193,403.879 93.784,415.505 		"/>
		<polygon style="fill:#7086AB;" points="69.919,415.505 71.897,403.879 44.672,403.879 42.298,415.505 		"/>
		<path style="fill:none;stroke:#0D0000;stroke-width:0.75;stroke-miterlimit:10;" d="M96.336,255.003
			c0,0-12.795,6.304-20.776,6.996"/>
		
			<line style="fill:none;stroke:#0D0000;stroke-width:0.75;stroke-miterlimit:10;" x1="85.39" y1="259.36" x2="94.842" y2="262.828"/>
		
			<line style="fill:none;stroke:#0D0000;stroke-width:0.75;stroke-miterlimit:10;" x1="59.118" y1="325.436" x2="60.509" y2="317.457"/>
		
			<line style="fill:none;stroke:#0D0000;stroke-width:0.75;stroke-miterlimit:10;" x1="106.206" y1="312.996" x2="107.89" y2="305.723"/>
		<path style="fill:#566885;" d="M132.086,298.451c0,0-1.542-0.481-4.807-0.046c-3.266,0.435-4.307,1.758-4.307,1.758
			s2.264,4.576,6.354,3.943C131.548,303.762,132.018,298.879,132.086,298.451z"/>
		<path style="fill:#566885;" d="M85.364,321.592c0,0-1.313-0.941-4.55-1.552c-3.237-0.611-4.641,0.318-4.641,0.318
			s0.714,5.056,4.797,5.738C83.187,326.467,85.165,321.977,85.364,321.592z"/>
		<path style="fill:none;stroke:#0D0000;stroke-width:0.75;stroke-miterlimit:10;" d="M57.84,126.091
			c-0.156,15.05-1.782,30.285-2.778,44.468"/>
		<path style="fill:none;stroke:#0D0000;stroke-width:0.75;stroke-miterlimit:10;" d="M46.178,148.759
			c1.966,0.53,3.933,1.059,5.899,1.589c0.182,0.049,0.371,0.102,0.512,0.221c0.295,0.249,0.25,0.7,0.012,0.971
			c-0.238,0.271-0.611,0.408-0.967,0.539c-2.534,0.935-4.96,2.089-7.237,3.442c1.914,0.805,3.95,1.298,5.91,1.991
			c1.96,0.694,3.901,1.629,5.271,3.105"/>
		
			<line style="fill:none;stroke:#0D0000;stroke-width:0.75;stroke-miterlimit:10;" x1="87.674" y1="128.214" x2="87.956" y2="134.604"/>
		<path style="fill:#6B7829;" d="M237.316,442.838c0,0-0.277-4.344-6.658-4.997c-6.38-0.653-6.658,1.094-16.644-1.24
			c-9.986-2.334-16.366-9.373-19.14-14.979c-2.774-5.606-10.818-7.432-10.818-7.432l-1.697-13.871l-14.669,9.002l9.154,8.296
			c0,0-4.161,5.133-4.716,11.257c-0.555,6.124,3.884,11.949,6.658,13.964H237.316z"/>
	</g>
</g>
</svg>
