<svg xmlns="http://www.w3.org/2000/svg" width="20" height="22" viewBox="0 0 20 22" fill="none">
  <path d="M15.2653 7.53054C15.2653 6.0767 14.6878 4.6824 13.6597 3.65438C12.6317 2.62636 11.2374 2.04883 9.7836 2.04883C8.32976 2.04883 6.93546 2.62636 5.90744 3.65438C4.87942 4.6824 4.30189 6.0767 4.30189 7.53054C4.30189 13.9259 1.56104 15.7531 1.56104 15.7531H18.0062C18.0062 15.7531 15.2653 13.9259 15.2653 7.53054Z" stroke="black" stroke-width="2.26829" stroke-linecap="round" stroke-linejoin="round"/>
  <path d="M11.3642 19.4075C11.2036 19.6844 10.9731 19.9142 10.6957 20.074C10.4183 20.2338 10.1038 20.3179 9.78368 20.3179C9.46357 20.3179 9.14908 20.2338 8.87169 20.074C8.5943 19.9142 8.36375 19.6844 8.20312 19.4075" stroke="black" stroke-width="2.26829" stroke-linecap="round" stroke-linejoin="round"/>
</svg>