<svg width="96" height="96" viewBox="0 0 96 96" fill="none" xmlns="http://www.w3.org/2000/svg">
<g id="Alternate email" clip-path="url(#clip0_130_2016)">
<path id="Vector" d="M48 8C25.92 8 8 25.92 8 48C8 70.08 25.92 88 48 88H68V80H48C30.64 80 16 65.36 16 48C16 30.64 30.64 16 48 16C65.36 16 80 30.64 80 48V53.72C80 56.88 77.16 60 74 60C70.84 60 68 56.88 68 53.72V48C68 36.96 59.04 28 48 28C36.96 28 28 36.96 28 48C28 59.04 36.96 68 48 68C53.52 68 58.56 65.76 62.16 62.12C64.76 65.68 69.24 68 74 68C81.88 68 88 61.6 88 53.72V48C88 25.92 70.08 8 48 8ZM48 60C41.36 60 36 54.64 36 48C36 41.36 41.36 36 48 36C54.64 36 60 41.36 60 48C60 54.64 54.64 60 48 60Z" fill="white"/>
</g>
<defs>
<clipPath id="clip0_130_2016">
<rect width="96" height="96" fill="white"/>
</clipPath>
</defs>
</svg>
