<svg xmlns="http://www.w3.org/2000/svg" width="59" height="59" viewBox="0 0 59 59" fill="none">
  <path d="M58.5775 22.9385C58.49 22.6723 58.2413 22.4929 57.9622 22.4929H36.9198L30.081 2.14611C29.9923 1.88317 29.7455 1.70508 29.4671 1.70508C29.1886 1.70508 28.9418 1.88253 28.8531 2.14611L22.0143 22.4923H0.971907C0.692136 22.4923 0.444099 22.6717 0.356671 22.9379C0.269242 23.204 0.362499 23.4955 0.58787 23.6612L17.5852 36.1693L11.1091 56.3815C11.0242 56.6463 11.1181 56.9358 11.3422 57.1003C11.5676 57.2667 11.8713 57.2693 12.0986 57.1081L29.4671 44.8765L46.8349 57.1094C46.9469 57.1884 47.0777 57.2279 47.2079 57.2279C47.3426 57.2279 47.4773 57.1864 47.5913 57.1022C47.816 56.9378 47.9093 56.6483 47.8244 56.3834L41.3483 36.1713L58.3456 23.6632C58.571 23.4961 58.6649 23.2047 58.5775 22.9385Z" fill="#FFD400"/>
</svg>